<svg height="37.577271pt" viewBox="0 0 413.13333 50.103029" width="309.85001pt" xmlns="http://www.w3.org/2000/svg"><g transform="matrix(1.3333333 0 0 -1.3333333 -202.16666 739.30418)"><g fill="#ee7105" stroke="#b5161e" stroke-linejoin="round" stroke-miterlimit="10" stroke-width=".75"><path d="m355.3 526.1h-104.9v19.5h209.7v-19.5z"/><path d="m213.2 526.1h-35.7v19.5h71.4v-19.5z"/><path d="m164.5 526.1h-11.5v19.5h22.9v-19.5z"/></g><g transform="scale(1 -1)"><g font-family="sans-serif" font-size="8"><text x="266.70261" y="-518"><tspan x="266.70261" y="-518">........................................................................</tspan></text><text x="192.89676" y="-518"><tspan x="192.89676" y="-518">................</tspan></text><text x="155.07109" y="-547.29999"><tspan x="155.07109" y="-547.29999">1 bit</tspan></text></g><text x="204.9005" y="-547.40002"><tspan x="204.9005" y="-547.40002"/></text><g font-family="sans-serif"><g font-size="8"><text x="199.29179" y="-547.40002"><tspan x="199.29179" y="-547.40002">11 bits</tspan></text><text x="341.47266" y="-547.40002"><tspan x="341.47266" y="-547.40002">52 bits</tspan></text><text x="352.79999" y="-537.47009"><tspan font-family="sans-serif" x="352.79999" y="-537.47009">T</tspan></text></g><text font-size="7" x="312.10001" y="-529.85388"><tspan font-size="7" x="312.10001" y="-529.85388">(trailing significand field)</tspan></text><text font-size="8" x="210.5" y="-537.47009"><tspan font-family="sans-serif" x="210.5" y="-537.47009">E</tspan></text><text font-size="7" x="181.10001" y="-529.85388"><tspan font-size="7" x="181.10001" y="-529.85388">(biased exponent)</tspan></text><text font-size="8" x="161.7" y="-537.43756"><tspan font-family="sans-serif" x="161.7" y="-537.43756">S</tspan></text><g font-size="7"><text x="154.3" y="-529.78094"><tspan font-size="7" x="154.3" y="-529.78094">(sign)</tspan></text><g stroke-width=".75" text-anchor="middle"><text x="454.21304" y="-518"><tspan font-family="sans-serif" font-size="7" stroke-width=".75" text-anchor="middle" x="454.21304" y="-518">0</tspan></text><text x="258.43857" y="-518"><tspan font-family="sans-serif" font-size="7" stroke-width=".75" text-anchor="middle" x="258.43857" y="-518">51</tspan></text><text x="241.02206" y="-518"><tspan font-family="sans-serif" font-size="7" stroke-width=".75" text-anchor="middle" x="241.02206" y="-518">52</tspan></text><text x="185.58984" y="-518"><tspan font-family="sans-serif" font-size="7" stroke-width=".75" text-anchor="middle" x="185.58984" y="-518">62</tspan></text><text x="164.48589" y="-518"><tspan font-family="sans-serif" font-size="7" stroke-width=".75" text-anchor="middle" x="164.48589" y="-518">63</tspan></text></g></g></g></g></g></svg>