<svg height="171.85pt" viewBox="0 0 493.71 229.13" width="370.28pt" xmlns="http://www.w3.org/2000/svg"><path d="m254.52 2.3332h236.86v112.04l-236.86-.00002z" fill="#f6c39c" fill-rule="evenodd"/><g stroke-linecap="round" stroke-linejoin="round"><path d="m254.52 65.741v-63.408h236.86v112.04h-236.86" fill="none" stroke="#e07c7a" stroke-width="1.9998"/><path d="m254.52 114.37.001-36.294" fill="none" stroke="#e07c7a" stroke-width="1.9998"/><g fill="#ee7105" fill-rule="evenodd" stroke="#b5161e" stroke-width="1.3"><path d="m167.05 82.867h45.532v10.958l45.532-21.915-45.532-21.915v10.958h-45.532z"/><path d="m324.28 82.867h45.532v10.958l45.532-21.915-45.532-21.915v10.958h-45.532z"/><path d="m105.23 37.585h40.347l17.126 13.788v54.861h-57.473v-68.648z"/><path d="m162.71 51.373h-17.126v-13.788z"/><path d="m262.46 37.585h40.347l17.126 13.788v54.861h-57.473v-68.648z"/><path d="m319.93 51.373h-17.126v-13.788z"/><path d="m419.68 37.585h57.473v68.648h-57.473z"/><path d="m105.23 150.44h40.347l17.126 13.788v54.861h-57.473v-68.648z"/><path d="m162.71 164.23h-17.126v-13.788z"/><path d="m55.356 49.994v10.957h-53.373v21.916h53.373v10.957l45.533-21.916z"/></g></g><text font-family="sans-serif" x="4.38231" y="75.366837"><tspan fill="#1b1918" font-family="sans-serif" font-size="12">Programmieren</tspan></text><path d="m55.356 162.85v10.957h-53.373v21.916h53.373v10.957l45.533-21.916z" style="fill:#ee7105;fill-rule:evenodd;stroke:#b5161e;stroke-linecap:round;stroke-linejoin:round;stroke-width:1.3"/><g font-family="sans-serif"><text x="4.38231" y="188.07343"><tspan fill="#1b1918" font-family="sans-serif" font-size="12">Programmieren</tspan></text><text x="173.21072" y="75.366837"><tspan fill="#1b1918" font-family="sans-serif" font-size="12">Kompilieren</tspan></text><text x="332.46762" y="76.13884"><tspan fill="#1b1918" font-family="sans-serif" font-size="12">Ausführung</tspan></text><g text-anchor="middle"><text x="133.89082" y="71.072815"><tspan x="133.89082" y="71.072815">Programm</tspan><tspan x="133.89082" y="86.072815">Quellkode</tspan></text><text x="290.11603" y="71.072815"><tspan x="290.11603" y="71.072815">Maschi-</tspan><tspan x="290.11603" y="86.072815">nenkode</tspan></text></g></g><path d="m450.22602 45.601433c.8315.1295 1.632.3451 2.3955.6399l.9136-1.5822.0129-.0229c.2807-.4858 1.2083-.4752 2.0721.0235.8637.4986 1.3366 1.2968 1.0565 1.7826l-.9288 1.6091c.6435.5204 1.2312 1.1087 1.751 1.7521l1.5869-.9165.0228-.0123c.4852-.2807 1.2839.1922 1.782 1.056.4993.8638.5099 1.7914.0241 2.0715l-1.608.9282c.2942.7624.5122 1.5646.6411 2.3944h1.8306.0264c.5608 0 1.0155.8087 1.0155 1.8061 0 .9973-.4547 1.806-1.0155 1.806h-1.8576c-.1289.8304-.3481 1.6297-.6428 2.3926l1.5874.9165.0223.0129c.4864.2807.4758 1.2083-.0235 2.0721-.4981.8638-1.2968 1.3367-1.7826 1.056l-1.612-.9306c-.5198.6434-1.1087 1.2283-1.7516 1.7486l.9189 1.5916.0134.0228c.2801.4858-.1928 1.284-1.0565 1.7826-.8638.4987-1.7914.5093-2.0721.0235l-.93-1.6109c-.7618.2947-1.5617.5139-2.392.6428v1.8576c0 .5602-.8087 1.0156-1.8061 1.0156-.9973 0-1.806-.4554-1.806-1.0156v-1.8576c-.8304-.1289-1.6308-.3481-2.3926-.6428l-.9294 1.6103c-.2801.4852-1.2083.4752-2.0721-.0234-.8632-.4987-1.3361-1.2974-1.056-1.7826l.9324-1.6145c-.6429-.5203-1.2318-1.1052-1.7516-1.7486l-1.6127.9312c-.4852.2801-1.2839-.1928-1.7826-1.056-.4986-.8643-.5086-1.792-.0234-2.0721l1.6103-.9294c-.2947-.7624-.5139-1.5622-.6428-2.3926h-1.8576c-.5602 0-1.0156-.8087-1.0156-1.806 0-.9974.4554-1.8061 1.0156-1.8061h1.857c.1289-.8298.3469-1.6314.6411-2.3938l-1.608-.9282c-.4852-.2801-.4758-1.2083.0234-2.0721.4981-.8638 1.2974-1.3361 1.7826-1.056l1.6092.9288c.5198-.6434 1.1075-1.2311 1.7515-1.7521l-.9288-1.6085c-.2801-.4853.1928-1.284 1.056-1.7827.8638-.4986 1.792-.5086 2.0721-.0234l.9264 1.6045c.7636-.2954 1.5641-.5104 2.3956-.6399v-1.8289-.0264c0-.5608.8087-1.0155 1.806-1.0155.9974 0 1.8061.4547 1.8061 1.0155zm-1.8055 4.2988c3.9918 0 7.2301 3.2383 7.2301 7.2301 0 3.993-3.2383 7.2312-7.2301 7.2312-3.993 0-7.2312-3.2382-7.2312-7.2312 0-3.9918 3.2382-7.2301 7.2312-7.2301z" style="fill:#b5151e;fill-rule:evenodd;stroke:#b5161e;stroke-linecap:round;stroke-linejoin:round;stroke-width:.9998"/><g font-family="sans-serif"><text text-anchor="middle" x="133.89375" y="180.8045"><tspan x="133.89375" y="180.8045">Python</tspan><tspan x="133.89375" y="195.8045">Quellkode</tspan></text><g font-weight="bold"><text x="310.96402" y="21.785133"><tspan fill="#1b1918" font-family="sans-serif" font-size="12" font-weight="bold">maschinenspezifisch</tspan></text><text x="4.552232" y="14.128232"><tspan x="4.552232" y="14.128232">Programmieren in einer kompilierten</tspan><tspan x="4.552232" y="29.128231">Sprache wie C</tspan></text><text x="4.458482" y="140.12823"><tspan fill="#1b1918" font-family="sans-serif" font-size="12" font-weight="bold">Programmieren in Python</tspan></text></g></g><text x="133.98683" y="81.248825"><tspan/></text><text font-family="sans-serif" text-anchor="middle" x="447.08896" y="86.402328"><tspan x="447.08896" y="86.402328">laufender</tspan><tspan x="447.08896" y="101.40233">Prozess</tspan></text></svg>