<svg height="171.85pt" viewBox="0 0 493.71 229.13" width="370.28pt" xmlns="http://www.w3.org/2000/svg"><path d="m254.52 2.3332h236.86v112.04102l-236.86-.00002z" fill="#f6c39c" fill-rule="evenodd"/><g stroke-linecap="round" stroke-linejoin="round"><path d="m254.52 65.741v-63.408h236.86v112.04122h-236.86" fill="none" stroke="#e07c7a" stroke-width="1.9998"/><path d="m254.52 114.3742.001-36.2942" fill="none" stroke="#e07c7a" stroke-width="1.9998"/><g fill="#ee7105" fill-rule="evenodd" stroke="#b5161e" stroke-width="1.3"><path d="m167.05 82.867h45.532v10.958l45.532-21.915-45.532-21.915v10.958h-45.532z"/><path d="m324.28 82.867h45.532v10.958l45.532-21.915-45.532-21.915v10.958h-45.532z"/><path d="m105.23 37.585h40.347l17.126 13.788v54.861h-57.473v-68.648z"/><path d="m162.71 51.373h-17.126v-13.788z"/><path d="m262.46 37.585h40.347l17.126 13.788v54.861h-57.473v-68.648z"/><path d="m319.93 51.373h-17.126v-13.788z"/><path d="m55.356 49.994v10.957h-53.373v21.916h53.373v10.957l45.533-21.916z"/></g></g><g font-family="sans-serif"><text x="4.38231" y="75.366837"><tspan fill="#1b1918" font-family="sans-serif" font-size="12">Programmieren</tspan></text><text x="173.21072" y="75.366837"><tspan fill="#1b1918" font-family="sans-serif" font-size="12">Kompilieren</tspan></text><text x="332.46762" y="76.13884"><tspan fill="#1b1918" font-family="sans-serif" font-size="12">Ausführung</tspan></text><text text-anchor="middle" x="133.89082" y="71.072815"><tspan x="133.89082" y="71.072815">Programm</tspan><tspan x="133.89082" y="86.072815">Quellkode</tspan></text><text text-anchor="middle" x="290.11603" y="71.072815"><tspan x="290.11603" y="71.072815">Maschi-</tspan><tspan x="290.11603" y="86.072815">nenkode</tspan></text><g font-weight="bold"><text x="310.96402" y="21.785133"><tspan fill="#1b1918" font-family="sans-serif" font-size="12" font-weight="bold">maschinenspezifisch</tspan></text><text x="4.552232" y="14.128232"><tspan x="4.552232" y="14.128232">Programmieren in einer kompilierten</tspan><tspan x="4.552232" y="29.128231">Sprache wie C</tspan></text></g></g></svg>