<svg height="234.11pt" viewBox="0 0 148.81 82.59" width="421.82pt" xmlns="http://www.w3.org/2000/svg"><g transform="translate(-.20826 -38.715)"><path d="m54.261 54.557a31.579 25.147 0 0 0 -31.579 25.147 31.579 25.147 0 0 0 31.579 25.147 31.579 25.147 0 0 0 11.568-1.7617 31.579 25.147 0 0 0 11.568 1.7617 31.579 25.147 0 0 0 31.579-25.147 31.579 25.147 0 0 0 -31.579-25.147 31.579 25.147 0 0 0 -11.551 1.7552 31.579 25.147 0 0 0 -11.586-1.7552z" fill="none" stroke="#28c828" stroke-linecap="round" stroke-linejoin="round" stroke-width=".70555"/><g font-family="DejaVu Sans Mono" font-size="3.8806" stroke-width=".26458"><g font-family="Consolas" font-size="3.8806" stroke-width=".26458"><text fill="#28c828" x="43.272846" y="115.23871"><tspan x="43.272846" y="115.23871"><tspan fill="#c82828">odd</tspan>.union(<tspan fill="#2828c8">prime</tspan>)</tspan><tspan x="43.272846" y="120.15572"><tspan fill="#2828c8">prime</tspan>.union(<tspan fill="#c82828">odd</tspan>)</tspan></text><g fill="#855dad"><text x="11.49631" y="41.88868"><tspan x="11.49631" y="41.88868"><tspan fill="#c82828">odd</tspan>.intersection(<tspan fill="#2828c8">prime</tspan>)</tspan><tspan x="11.49631" y="46.805698"><tspan fill="#2828c8">prime</tspan>.intersection(<tspan fill="#c82828">odd</tspan>)</tspan></text><text x="83.093246" y="44.38649"><tspan x="83.093246" y="44.38649"><tspan fill="#c82828">odd</tspan><tspan fill="#00c8c8">.symmetric_difference(</tspan><tspan fill="#2828c8">prime</tspan><tspan fill="#00c8c8">)</tspan></tspan><tspan x="83.093246" y="49.303509"><tspan fill="#2828c8">prime</tspan><tspan fill="#00c8c8">.symmetric_difference(</tspan><tspan fill="#c82828">odd</tspan><tspan fill="#00c8c8">)</tspan></tspan></text></g></g><text fill="#9393e3" x="82.640297" y="111.37054"><tspan font-family="Consolas" font-size="3.8806" stroke-width=".26458" x="82.640297" y="111.37054"><tspan fill="#2828c8">prime</tspan>.difference(<tspan fill="#c82828">odd</tspan>)</tspan></text></g><path d="m77.183 104.89-5.1898 5.4909" fill="none" stroke="#28c828" stroke-linecap="round" stroke-linejoin="round" stroke-width=".35278"/><ellipse cx="77.095" cy="79.704" fill="#9393e3" rx="30.754" ry="24.025"/><ellipse cx="54.563" cy="79.704" fill="#e39393" rx="30.754" ry="24.025"/><g stroke-linecap="round" stroke-linejoin="round"><path d="m65.846 57.359a30.754 24.025 0 0 0 -19.505 22.348 30.754 24.025 0 0 0 19.488 22.343 30.754 24.025 0 0 0 19.488-22.343 30.754 24.025 0 0 0 -19.471-22.348z" fill="#855dad" stroke-width=".70556"/><g font-family="DejaVu Sans" stroke="#fff" stroke-width=".35278"><text fill="#c82828" font-size="5.6444" font-weight="bold" transform="matrix(.90631 -.42262 .42262 .90631 0 0)" x="7.077157" y="77.008171"><tspan style="fill:#c82828;font-size:5.6444;stroke:#fff;stroke-linecap:round;stroke-linejoin:round;stroke-width:.35278" x="7.077157" y="77.008171">odd</tspan></text><g font-size="7.0556"><text x="30.562757" xml:space="preserve" y="86.373825"><tspan style="font-family:DejaVu Sans;font-size:7.0556;stroke:#fff;stroke-linecap:round;stroke-linejoin:round;stroke-width:.35278" x="30.562757" y="86.373825">9 </tspan></text><text x="33.171341" xml:space="preserve" y="75.508873"><tspan style="font-family:DejaVu Sans;font-size:7.0556;stroke:#fff;stroke-linecap:round;stroke-linejoin:round;stroke-width:.35278" x="33.171341" y="75.508873">1 </tspan></text><text x="35.68697" xml:space="preserve" y="95.016815"><tspan style="font-family:DejaVu Sans;font-size:7.0556;stroke:#fff;stroke-linecap:round;stroke-linejoin:round;stroke-width:.35278" x="35.68697" y="95.016815">15 </tspan></text></g></g><ellipse cx="54.563" cy="79.704" fill="none" rx="30.754" ry="24.025" stroke="#c82828" stroke-width=".70555"/><ellipse cx="77.095" cy="79.704" fill="none" rx="30.754" ry="24.025" stroke="#2828c8" stroke-width=".70556"/><g stroke-width=".35278"><g font-family="DejaVu Sans" stroke="#fff"><text fill="#2828c8" font-size="5.6444" font-weight="bold" transform="matrix(.90631 .42262 -.42262 .90631 0 0)" x="98.79126" y="21.531921"><tspan style="fill:#2828c8;font-size:5.6444;stroke:#fff;stroke-linecap:round;stroke-linejoin:round;stroke-width:.35278" x="98.79126" y="21.531921">prime</tspan></text><g font-size="7.0556"><text x="95.724281" y="86.164803"><tspan style="font-family:DejaVu Sans;font-size:7.0556;stroke:#fff;stroke-linecap:round;stroke-linejoin:round;stroke-width:.35278" x="95.724281" y="86.164803">2</tspan></text><g transform="translate(9.2 -53.738)"><text x="47.693718" xml:space="preserve" y="141.11717"><tspan style="font-family:DejaVu Sans;font-size:7.0556;stroke:#fff;stroke-linecap:round;stroke-linejoin:round;stroke-width:.35278" x="47.693718" y="141.11717">3 </tspan></text><text x="43.935848" xml:space="preserve" y="128.20824"><tspan style="font-family:DejaVu Sans;font-size:7.0556;stroke:#fff;stroke-linecap:round;stroke-linejoin:round;stroke-width:.35278" x="43.935848" y="128.20824">5 </tspan></text><text x="56.64341" xml:space="preserve" y="147.73956"><tspan style="font-family:DejaVu Sans;font-size:7.0556;stroke:#fff;stroke-linecap:round;stroke-linejoin:round;stroke-width:.35278" x="56.64341" y="147.73956">7 </tspan></text><text x="55.124001" xml:space="preserve" y="124.28764"><tspan style="font-family:DejaVu Sans;font-size:7.0556;stroke:#fff;stroke-linecap:round;stroke-linejoin:round;stroke-width:.35278" x="55.124001" y="124.28764">11 </tspan></text><text x="60.364471" y="136.6075"><tspan style="font-family:DejaVu Sans;font-size:7.0556;stroke:#fff;stroke-linecap:round;stroke-linejoin:round;stroke-width:.35278" x="60.364471" y="136.6075">13</tspan></text></g></g></g><g fill="none"><path d="m66.211 59.835-5.9536-11.918" stroke="#855dad"/><path d="m97.368 63.945 8.8648-12.618" stroke="#00c8c8"/></g></g></g><path d="m91.809 97.587 4.5063 9.5402" fill="none" stroke="#9393e3" stroke-width=".35278"/><text fill="#e39393" font-family="DejaVu Sans Mono" font-size="3.8806" stroke-width=".26458" x=".38672" y="108.71625"><tspan font-family="Consolas" font-size="3.8806" stroke-width=".26458" x=".38672" y="108.71625"><tspan fill="#c82828">odd</tspan>.difference(<tspan fill="#2828c8">prime</tspan>)</tspan></text><g fill="none"><path d="m32.658 93.895-18.596 10.578" stroke="#e39393" stroke-width=".353"/><g stroke="#00c8c8" stroke-linecap="round" stroke-linejoin="round"><path d="m77.56 56.93c-3.3298.004-4.8841.0455-8.1391.38084 10.158 3.1064 17.49 13.925 17.491 22.393-.0059 8.4683-7.3158 19.25-17.478 22.352 3.5152.35038 4.8184.3826 8.1534.38616 14.686.00004 28.806-11.35 28.806-22.738s-14.148-22.774-28.834-22.774z" stroke-width=".70556"/><path d="m53.845 56.929c-14.686-.00004-28.581 11.386-28.581 22.774s12.337 22.738 27.022 22.738c3.3349-.004 5.7031-.0993 9.7405-.38573-10.162-3.1023-17.275-13.884-17.281-22.352.0057-8.4729 7.0978-19.293 17.267-22.392-3.4794-.33826-4.8282-.38067-8.1677-.38128z" stroke-width=".70555"/></g></g></g></svg>