<?xml version="1.0" encoding="UTF-8"?>
<svg width="524.94pt" height="288.15pt" version="1.1" viewBox="0 0 524.94 288.15" xmlns="http://www.w3.org/2000/svg"><defs><marker id="a" overflow="visible" markerHeight="2.714" markerWidth="4.7494998" orient="auto-start-reverse" preserveAspectRatio="xMidYMid" viewBox="0 0 8.75 5"><path d="m0 0-2.5 2.5 8.75-2.5-8.75-2.5z" fill="context-stroke" fill-rule="evenodd"/></marker></defs><g transform="translate(-63.053 -32.659)"><polyline transform="matrix(.8918 0 0 .89053 -63.178 -59.994)" points="720 403.5 648 403.5 576 403.5 504 403.5 432 403.5 360.17 403.5 288 403.5 216.16 403.5 144 403.5" fill="none" marker-start="url(#a)" stroke="#000" stroke-linecap="round" stroke-linejoin="round" stroke-width="2.6667"/><g transform="translate(31.752)"><path d="m284.92 318.8c-0.10411 0.26028-0.10411 0.36441-0.10411 0.41645 0 0.36441 0.31234 0.57264 0.62467 0.57264 0.36441 0 0.72879-0.20823 0.8329-0.72879 0.31234-1.0932 0.15617-0.46849 0.41645-1.5617l0.36441-1.6138c0.67672 0.41645 1.4576 0.52057 2.0302 0.52057 1.0932 0 1.9781-0.52057 2.7069-1.2494 0.26028 0.98909 1.4055 1.2494 1.9261 1.2494 0.67672 0 1.1452-0.41646 1.4576-0.93702 0.46849-0.67671 0.67671-1.5617 0.67671-1.6658 0-0.20822-0.26028-0.20822-0.36441-0.20822-0.26028 0-0.31234 0.10411-0.36441 0.36441-0.31234 1.1973-0.72879 1.874-1.3014 1.874-0.46849 0-0.67671-0.36441-0.67671-0.88494 0-0.36441 0.52056-2.3946 1.1452-4.9454 0.10411-0.26028 0.10411-0.31234 0.10411-0.36441 0-0.36441-0.31234-0.57264-0.62468-0.57264-0.67671 0-0.78086 0.52056-0.93701 1.0411-0.15617 0.67671-0.15617 0.72878-0.36441 1.4055-0.15617 0.72879-0.36441 1.5617-0.52056 2.1864-0.10412 0.36441-0.10412 0.41645-0.36441 0.78086-0.57264 0.67672-1.3535 1.3535-2.3946 1.3535-0.88494 0-1.6138-0.36441-1.6138-1.5617 0-0.36441 0.10411-0.72879 0.20822-1.1973 0.15617-0.72879 0.20823-0.8329 0.36441-1.5096l0.31234-1.0932c0.0521-0.36441 0.20823-0.93701 0.20823-1.0411 0-0.26028-0.20823-0.57263-0.62468-0.57263-0.67671 0-0.78086 0.62467-0.8329 0.8329z" stroke-width="1.3333"/></g><g transform="translate(23.971)"><path d="m340.78 318.82c-0.10411 0.26028-0.10411 0.36441-0.10411 0.41645 0 0.36441 0.31233 0.57264 0.62467 0.57264 0.36441 0 0.72879-0.20823 0.8329-0.72879 0.31234-1.0932 0.15617-0.46849 0.41645-1.5617l0.36441-1.6138c0.67672 0.41645 1.4576 0.52057 2.0302 0.52057 1.0932 0 1.9781-0.52057 2.7069-1.2494 0.26028 0.98909 1.4055 1.2494 1.9261 1.2494 0.67672 0 1.1452-0.41646 1.4576-0.93702 0.46849-0.67671 0.67671-1.5617 0.67671-1.6658 0-0.20822-0.26028-0.20822-0.36441-0.20822-0.26028 0-0.31234 0.10411-0.36441 0.36441-0.31234 1.1973-0.72879 1.874-1.3014 1.874-0.46849 0-0.67671-0.36441-0.67671-0.88494 0-0.36441 0.52056-2.3946 1.1452-4.9454 0.10412-0.26028 0.10412-0.31234 0.10412-0.36441 0-0.36441-0.31234-0.57264-0.62468-0.57264-0.67671 0-0.78086 0.52056-0.93701 1.0411-0.15617 0.67671-0.15617 0.72878-0.36441 1.4055-0.15617 0.72879-0.36441 1.5617-0.52056 2.1864-0.10412 0.36441-0.10412 0.41645-0.36441 0.78086-0.57264 0.67672-1.3535 1.3535-2.3946 1.3535-0.88494 0-1.6138-0.36441-1.6138-1.5617 0-0.36441 0.10411-0.72879 0.20822-1.1973 0.15617-0.72879 0.20823-0.8329 0.36441-1.5096l0.31234-1.0932c0.0521-0.36441 0.20823-0.93701 0.20823-1.0411 0-0.26028-0.20823-0.57263-0.62468-0.57263-0.67671 0-0.78086 0.62467-0.8329 0.8329z" stroke-width="1.3333"/><path d="m383.02 310.29c0.31234 0 0.46849 0 0.67672-0.15617 0.10411-0.10411 0.26028-0.31234 0.26028-0.57264 0-0.52056-0.46849-0.52056-0.72879-0.52056h-4.8934c-2.811 0-5.0494 2.4987-5.0494 4.477 0 1.7178 1.4576 2.8631 3.2796 2.8631 2.3946 0 4.8934-1.874 4.8934-4.3727 0-0.67671-0.15617-1.2494-0.52056-1.7178zm-6.403 5.5178c-0.78086 0-1.9781-0.31233-1.9781-1.874 0-0.52056 0.20822-3.6441 3.4355-3.6441 1.2494 0 2.0302 0.46849 2.0302 1.6138 0 1.6658-1.3014 3.9043-3.4878 3.9043z" stroke-width="1.3333"/><text x="354.22986" y="317.01282" font-family="'Nimbus Sans'" font-size="16px" style="line-height:1.25" xml:space="preserve"><tspan x="354.22986" y="317.01282">+</tspan></text><text x="364.44919" y="316.78702" font-family="'Nimbus Sans'" font-size="16px" style="line-height:1.25" xml:space="preserve"><tspan x="364.44919" y="316.78702">1</tspan></text></g><g transform="translate(16.181)"><path d="m412.78 318.82c-0.10411 0.26028-0.10411 0.36441-0.10411 0.41645 0 0.36441 0.31233 0.57264 0.62467 0.57264 0.36441 0 0.72879-0.20823 0.8329-0.72879 0.31234-1.0932 0.15617-0.46849 0.41645-1.5617l0.36441-1.6138c0.67672 0.41645 1.4576 0.52057 2.0302 0.52057 1.0932 0 1.9781-0.52057 2.7069-1.2494 0.26028 0.98909 1.4055 1.2494 1.9261 1.2494 0.67672 0 1.1452-0.41646 1.4576-0.93702 0.46849-0.67671 0.67671-1.5617 0.67671-1.6658 0-0.20822-0.26028-0.20822-0.36441-0.20822-0.26028 0-0.31234 0.10411-0.36441 0.36441-0.31234 1.1973-0.72879 1.874-1.3014 1.874-0.46849 0-0.67671-0.36441-0.67671-0.88494 0-0.36441 0.52056-2.3946 1.1452-4.9454 0.10412-0.26028 0.10412-0.31234 0.10412-0.36441 0-0.36441-0.31234-0.57264-0.62468-0.57264-0.67671 0-0.78086 0.52056-0.93701 1.0411-0.15617 0.67671-0.15617 0.72878-0.36441 1.4055-0.15617 0.72879-0.36441 1.5617-0.52056 2.1864-0.10412 0.36441-0.10412 0.41645-0.36441 0.78086-0.57264 0.67672-1.3535 1.3535-2.3946 1.3535-0.88494 0-1.6138-0.36441-1.6138-1.5617 0-0.36441 0.10411-0.72879 0.20822-1.1973 0.15617-0.72879 0.20823-0.8329 0.36441-1.5096l0.31234-1.0932c0.0521-0.36441 0.20823-0.93701 0.20823-1.0411 0-0.26028-0.20823-0.57263-0.62468-0.57263-0.67671 0-0.78086 0.62467-0.8329 0.8329z" stroke-width="1.3333"/><path d="m455.02 310.29c0.31234 0 0.46849 0 0.67672-0.15617 0.10411-0.10411 0.26028-0.31234 0.26028-0.57264 0-0.52056-0.46849-0.52056-0.72879-0.52056h-4.8934c-2.811 0-5.0494 2.4987-5.0494 4.477 0 1.7178 1.4576 2.8631 3.2796 2.8631 2.3946 0 4.8934-1.874 4.8934-4.3727 0-0.67671-0.15617-1.2494-0.52056-1.7178zm-6.403 5.5178c-0.78086 0-1.9781-0.31233-1.9781-1.874 0-0.52056 0.20822-3.6441 3.4355-3.6441 1.2494 0 2.0302 0.46849 2.0302 1.6138 0 1.6658-1.3014 3.9043-3.4878 3.9043z" stroke-width="1.3333"/><text x="424.99252" y="317.01279" font-family="'Nimbus Sans'" font-size="16px" style="line-height:1.25" xml:space="preserve"><tspan x="424.99252" y="317.01279">+</tspan></text><text x="435.06253" y="316.78699" font-family="'Nimbus Sans'" font-size="16px" style="line-height:1.25" xml:space="preserve"><tspan x="435.06253" y="316.78699">2</tspan></text></g><g transform="translate(8.3912)"><path d="m484.78 318.82c-0.10411 0.26028-0.10411 0.36441-0.10411 0.41645 0 0.36441 0.31233 0.57264 0.62467 0.57264 0.36441 0 0.72879-0.20823 0.8329-0.72879 0.31234-1.0932 0.15617-0.46849 0.41645-1.5617l0.36441-1.6138c0.67672 0.41645 1.4576 0.52057 2.0302 0.52057 1.0932 0 1.9781-0.52057 2.7069-1.2494 0.26028 0.98909 1.4055 1.2494 1.9261 1.2494 0.67672 0 1.1452-0.41646 1.4576-0.93702 0.46849-0.67671 0.67671-1.5617 0.67671-1.6658 0-0.20822-0.26028-0.20822-0.36441-0.20822-0.26028 0-0.31234 0.10411-0.36441 0.36441-0.31234 1.1973-0.72879 1.874-1.3014 1.874-0.46849 0-0.67671-0.36441-0.67671-0.88494 0-0.36441 0.52056-2.3946 1.1452-4.9454 0.10412-0.26028 0.10412-0.31234 0.10412-0.36441 0-0.36441-0.31234-0.57264-0.62468-0.57264-0.67671 0-0.78086 0.52056-0.93701 1.0411-0.15617 0.67671-0.15617 0.72878-0.36441 1.4055-0.15617 0.72879-0.36441 1.5617-0.52056 2.1864-0.10412 0.36441-0.10412 0.41645-0.36441 0.78086-0.57264 0.67672-1.3535 1.3535-2.3946 1.3535-0.88494 0-1.6138-0.36441-1.6138-1.5617 0-0.36441 0.10411-0.72879 0.20822-1.1973 0.15617-0.72879 0.20823-0.8329 0.36441-1.5096l0.31234-1.0932c0.0521-0.36441 0.20823-0.93701 0.20823-1.0411 0-0.26028-0.20823-0.57263-0.62468-0.57263-0.67671 0-0.78086 0.62467-0.8329 0.8329z" stroke-width="1.3333"/><path d="m527.02 310.29c0.31234 0 0.46849 0 0.67672-0.15617 0.10411-0.10411 0.26028-0.31234 0.26028-0.57264 0-0.52056-0.46849-0.52056-0.72879-0.52056h-4.8934c-2.811 0-5.0494 2.4987-5.0494 4.477 0 1.7178 1.4576 2.8631 3.2796 2.8631 2.3946 0 4.8934-1.874 4.8934-4.3727 0-0.67671-0.15617-1.2494-0.52056-1.7178zm-6.403 5.5178c-0.78086 0-1.9781-0.31233-1.9781-1.874 0-0.52056 0.20822-3.6441 3.4355-3.6441 1.2494 0 2.0302 0.46849 2.0302 1.6138 0 1.6658-1.3014 3.9043-3.4878 3.9043z" stroke-width="1.3333"/><text x="497.00851" y="317.01285" font-family="'Nimbus Sans'" font-size="16px" style="line-height:1.25" xml:space="preserve"><tspan x="497.00851" y="317.01285">+</tspan></text><text x="507.12653" y="316.78705" font-family="'Nimbus Sans'" font-size="16px" style="line-height:1.25" xml:space="preserve"><tspan x="507.12653" y="316.78705">3</tspan></text></g><g transform="translate(39.541)"><path d="m196.79 318.8c-0.10411 0.26028-0.10411 0.36441-0.10411 0.41645 0 0.36441 0.31233 0.57264 0.62467 0.57264 0.36441 0 0.72879-0.20823 0.8329-0.72879 0.31234-1.0932 0.15617-0.46849 0.41645-1.5617l0.36441-1.6138c0.67672 0.41645 1.4576 0.52057 2.0302 0.52057 1.0932 0 1.9781-0.52057 2.7069-1.2494 0.26028 0.98909 1.4055 1.2494 1.9261 1.2494 0.67672 0 1.1452-0.41646 1.4576-0.93702 0.46849-0.67671 0.67671-1.5617 0.67671-1.6658 0-0.20822-0.26028-0.20822-0.36441-0.20822-0.26028 0-0.31234 0.10411-0.36441 0.36441-0.31234 1.1973-0.72879 1.874-1.3014 1.874-0.46849 0-0.67671-0.36441-0.67671-0.88494 0-0.36441 0.52056-2.3946 1.1452-4.9454 0.10412-0.26028 0.10412-0.31234 0.10412-0.36441 0-0.36441-0.31234-0.57264-0.62468-0.57264-0.67671 0-0.78086 0.52056-0.93701 1.0411-0.15617 0.67671-0.15617 0.72878-0.36441 1.4055-0.15617 0.72879-0.36441 1.5617-0.52056 2.1864-0.10412 0.36441-0.10412 0.41645-0.36441 0.78086-0.57264 0.67672-1.3535 1.3535-2.3946 1.3535-0.88494 0-1.6138-0.36441-1.6138-1.5617 0-0.36441 0.10411-0.72879 0.20822-1.1973 0.15617-0.72879 0.20823-0.8329 0.36441-1.5096l0.31234-1.0932c0.0521-0.36441 0.20823-0.93701 0.20823-1.0411 0-0.26028-0.20823-0.57263-0.62468-0.57263-0.67671 0-0.78086 0.62467-0.8329 0.8329z" stroke-width="1.3333"/><path d="m239.04 310.32c0.31234 0 0.46849 0 0.67672-0.15617 0.10411-0.10411 0.26028-0.31234 0.26028-0.57264 0-0.52056-0.46849-0.52056-0.72879-0.52056h-4.8934c-2.811 0-5.0494 2.4987-5.0494 4.477 0 1.7178 1.4576 2.8631 3.2796 2.8631 2.3946 0 4.8934-1.874 4.8934-4.3727 0-0.67671-0.15617-1.2494-0.52056-1.7178zm-6.403 5.5178c-0.78086 0-1.9781-0.31233-1.9781-1.874 0-0.52056 0.20822-3.6441 3.4355-3.6441 1.2494 0 2.0302 0.46849 2.0302 1.6138 0 1.6658-1.3014 3.9043-3.4878 3.9043z" stroke-width="1.3333"/><text x="211.60585" y="317.01282" font-family="'Nimbus Sans'" font-size="16px" style="line-height:1.25" xml:space="preserve"><tspan x="211.60585" y="317.01282">-</tspan></text><text x="219.13721" y="316.78702" font-family="'Nimbus Sans'" font-size="16px" style="line-height:1.25" xml:space="preserve"><tspan x="219.13721" y="316.78702">1</tspan></text></g><g transform="translate(47.367)"><path d="m124.73 318.82c-0.10411 0.26028-0.10411 0.36441-0.10411 0.41645 0 0.36441 0.31234 0.57264 0.62467 0.57264 0.36441 0 0.72879-0.20823 0.8329-0.72879 0.31234-1.0932 0.15617-0.46849 0.41645-1.5617l0.36441-1.6138c0.67672 0.41645 1.4576 0.52057 2.0302 0.52057 1.0932 0 1.9781-0.52057 2.7069-1.2494 0.26028 0.98909 1.4055 1.2494 1.9261 1.2494 0.67672 0 1.1452-0.41646 1.4576-0.93702 0.46849-0.67671 0.67671-1.5617 0.67671-1.6658 0-0.20822-0.26028-0.20822-0.36441-0.20822-0.26028 0-0.31234 0.10411-0.36441 0.36441-0.31234 1.1973-0.72879 1.874-1.3014 1.874-0.46849 0-0.67671-0.36441-0.67671-0.88494 0-0.36441 0.52056-2.3946 1.1452-4.9454 0.10412-0.26028 0.10412-0.31234 0.10412-0.36441 0-0.36441-0.31234-0.57264-0.62468-0.57264-0.67671 0-0.78086 0.52056-0.93701 1.0411-0.15617 0.67671-0.15617 0.72878-0.36441 1.4055-0.15617 0.72879-0.36441 1.5617-0.52056 2.1864-0.10412 0.36441-0.10412 0.41645-0.36441 0.78086-0.57264 0.67672-1.3535 1.3535-2.3946 1.3535-0.88494 0-1.6138-0.36441-1.6138-1.5617 0-0.36441 0.10411-0.72879 0.20822-1.1973 0.15617-0.72879 0.20823-0.8329 0.36441-1.5096l0.31234-1.0932c0.0521-0.36441 0.20823-0.93701 0.20823-1.0411 0-0.26028-0.20823-0.57263-0.62468-0.57263-0.67671 0-0.78086 0.62467-0.8329 0.8329z" stroke-width="1.3333"/><path d="m167.02 310.29c0.31234 0 0.46849 0 0.67672-0.15617 0.10411-0.10411 0.26028-0.31234 0.26028-0.57264 0-0.52056-0.46849-0.52056-0.72879-0.52056h-4.8934c-2.811 0-5.0494 2.4987-5.0494 4.477 0 1.7178 1.4576 2.8631 3.2796 2.8631 2.3946 0 4.8934-1.874 4.8934-4.3727 0-0.67671-0.15617-1.2494-0.52056-1.7178zm-6.403 5.5178c-0.78086 0-1.9781-0.31233-1.9781-1.874 0-0.52056 0.20822-3.6441 3.4355-3.6441 1.2494 0 2.0302 0.46849 2.0302 1.6138 0 1.6658-1.3014 3.9043-3.4878 3.9043z" stroke-width="1.3333"/><text x="138.36853" y="317.01282" font-family="'Nimbus Sans'" font-size="16px" style="line-height:1.25" xml:space="preserve"><tspan x="138.36853" y="317.01282">-</tspan></text><text x="145.75055" y="316.78702" font-family="'Nimbus Sans'" font-size="16px" style="line-height:1.25" xml:space="preserve"><tspan x="145.75055" y="316.78702">2</tspan></text></g><g transform="translate(55.14)"><path d="m52.733 318.82c-0.10411 0.26028-0.10411 0.36441-0.10411 0.41645 0 0.36441 0.31234 0.57264 0.62468 0.57264 0.36441 0 0.72879-0.20823 0.8329-0.72879 0.31234-1.0932 0.15617-0.46849 0.41645-1.5617l0.36441-1.6138c0.67671 0.41645 1.4576 0.52057 2.0302 0.52057 1.0932 0 1.9781-0.52057 2.7069-1.2494 0.26028 0.98909 1.4055 1.2494 1.9261 1.2494 0.67671 0 1.1452-0.41646 1.4576-0.93702 0.46849-0.67671 0.67671-1.5617 0.67671-1.6658 0-0.20822-0.26028-0.20822-0.36441-0.20822-0.26028 0-0.31234 0.10411-0.36441 0.36441-0.31234 1.1973-0.72879 1.874-1.3014 1.874-0.46849 0-0.67672-0.36441-0.67672-0.88494 0-0.36441 0.52056-2.3946 1.1452-4.9454 0.10411-0.26028 0.10411-0.31234 0.10411-0.36441 0-0.36441-0.31234-0.57264-0.62468-0.57264-0.67671 0-0.78086 0.52056-0.93701 1.0411-0.15617 0.67671-0.15617 0.72878-0.36441 1.4055-0.15617 0.72879-0.36441 1.5617-0.52056 2.1864-0.10411 0.36441-0.10411 0.41645-0.36441 0.78086-0.57264 0.67672-1.3535 1.3535-2.3946 1.3535-0.88494 0-1.6138-0.36441-1.6138-1.5617 0-0.36441 0.10411-0.72879 0.20822-1.1973 0.15617-0.72879 0.20822-0.8329 0.36441-1.5096l0.31234-1.0932c0.05206-0.36441 0.20822-0.93701 0.20822-1.0411 0-0.26028-0.20822-0.57263-0.62468-0.57263-0.67672 0-0.78086 0.62467-0.8329 0.8329z" stroke-width="1.3333"/><path d="m95.064 310.29c0.31234 0 0.46849 0 0.67672-0.15617 0.10411-0.10411 0.26028-0.31234 0.26028-0.57264 0-0.52056-0.46849-0.52056-0.72879-0.52056h-4.8935c-2.811 0-5.0494 2.4987-5.0494 4.477 0 1.7178 1.4576 2.8631 3.2796 2.8631 2.3946 0 4.8935-1.874 4.8935-4.3727 0-0.67671-0.15617-1.2494-0.52056-1.7178zm-6.403 5.5178c-0.78086 0-1.9781-0.31233-1.9781-1.874 0-0.52056 0.20822-3.6441 3.4355-3.6441 1.2494 0 2.0302 0.46849 2.0302 1.6138 0 1.6658-1.3014 3.9043-3.4879 3.9043z" stroke-width="1.3333"/><text x="66.384529" y="317.01285" font-family="'Nimbus Sans'" font-size="16px" style="line-height:1.25" xml:space="preserve"><tspan x="66.384529" y="317.01285">-</tspan></text><text x="73.814552" y="316.78705" font-family="'Nimbus Sans'" font-size="16px" style="line-height:1.25" xml:space="preserve"><tspan x="73.814552" y="316.78705">3</tspan></text></g><line x1="129.45" x2="129.45" y1="274.77" y2="299.33" fill="none" stroke="#000"/><line x1="193.66" x2="193.66" y1="207.16" y2="299.33" fill="none" stroke="#000"/><line x1="257.87" x2="257.87" y1="84.068" y2="299.33" fill="none" stroke="#000"/><line x1="322.08" x2="322.08" y1="34.85" y2="299.33" fill="none" stroke="#000"/><line x1="386.29" x2="386.29" y1="84.068" y2="299.33" fill="none" stroke="#000"/><line x1="514.71" x2="514.71" y1="274.77" y2="299.33" fill="none" stroke="#000"/><line x1="450.5" x2="450.5" y1="207.16" y2="299.33" fill="none" stroke="#000"/><path d="m578.92 291.32c-24.953 0-46.026-6.1981-64.183-16.671-26.434-15.229-46.695-39.513-63.746-66.896-24.97-40.083-43.083-86.809-63.666-121.57-17.863-30.171-37.581-51.33-65.244-51.33-27.735 0-47.48 21.266-65.378 51.553-20.547 34.775-38.651 81.439-63.595 121.46-17.194 27.588-37.643 52.016-64.388 67.19-17.997 10.232-38.847 16.27-63.479 16.27" fill="none" stroke="#f00" stroke-linecap="round" stroke-linejoin="round" stroke-width="2.3765"/></g></svg>
