<svg height="301.48pt" viewBox="0 0 233.57 106.35" width="662.08pt" xmlns="http://www.w3.org/2000/svg"><g font-family="monospace" font-size="4.2333" stroke-width=".26458"><text x="147.28844" y="21.055714"><tspan font-family="monospace" font-size="4.2333" stroke-width=".26458" x="147.28844" y="21.055714">8</tspan></text><text x="155.68651" y="21.055714"><tspan font-family="monospace" font-size="4.2333" stroke-width=".26458" x="155.68651" y="21.055714">+</tspan></text><text x="164.067" y="21.055714"><tspan font-family="monospace" font-size="4.2333" stroke-width=".26458" x="164.067" y="21.055714">4</tspan></text><text x="172.54671" y="21.055714"><tspan font-family="monospace" font-size="4.2333" stroke-width=".26458" x="172.54671" y="21.055714">+</tspan></text><text x="181.30212" y="21.055714"><tspan font-family="monospace" font-size="4.2333" stroke-width=".26458" x="181.30212" y="21.055714">2</tspan></text><text fill="#646464" x="126.88929" y="32.35844"><tspan fill="#646464" font-family="monospace" font-size="4.2333" stroke-width=".26458" x="126.88929" y="32.35844">0*2<tspan baseline-shift="super" fill="#646464" font-family="monospace" font-size="65%">4</tspan></tspan></text><text x="155.68651" y="32.35844"><tspan font-family="monospace" font-size="4.2333" stroke-width=".26458" x="155.68651" y="32.35844">+</tspan></text><text x="160.55678" y="32.35844"><tspan font-family="monospace" font-size="4.2333" stroke-width=".26458" x="160.55678" y="32.35844">1*2<tspan baseline-shift="super" font-family="monospace" font-size="65%">2</tspan></tspan></text><text x="138.89038" y="32.35844"><tspan font-family="monospace" font-size="4.2333" stroke-width=".26458" x="138.89038" y="32.35844">+</tspan></text><text x="143.76065" y="32.35844"><tspan font-family="monospace" font-size="4.2333" stroke-width=".26458" x="143.76065" y="32.35844">1*2<tspan baseline-shift="super" font-family="monospace" font-size="65%">3</tspan></tspan></text><text x="172.45576" xml:space="preserve" y="32.35844"><tspan font-family="monospace" font-size="4.2333" stroke-width=".26458" x="172.45576" y="32.35844">+ </tspan></text><text x="177.74152" y="32.35844"><tspan font-family="monospace" font-size="4.2333" stroke-width=".26458" x="177.74152" y="32.35844">1*2<tspan baseline-shift="super" font-family="monospace" font-size="65%">1</tspan></tspan></text><text x="188.46971" y="21.055714"><tspan font-family="monospace" font-size="4.2333" stroke-width=".26458" x="188.46971" y="21.055714">+</tspan></text><text x="197.22513" y="21.055714"><tspan font-family="monospace" font-size="4.2333" stroke-width=".26458" x="197.22513" y="21.055714">1</tspan></text><text x="189.68752" xml:space="preserve" y="32.35844"><tspan font-family="monospace" font-size="4.2333" stroke-width=".26458" x="189.68752" y="32.35844">+ </tspan></text><text x="194.73969" y="32.35844"><tspan font-family="monospace" font-size="4.2333" stroke-width=".26458" x="194.73969" y="32.35844">1*2<tspan baseline-shift="super" font-family="monospace" font-size="65%">0</tspan></tspan></text></g><g fill="none" stroke="#000" stroke-linecap="round" stroke-linejoin="round" stroke-width=".70556"><path d="m165.63 5.672-17.068 10.072"/><path d="m165.63 5.672-.28526 10.206"/><path d="m165.63 5.672 16.923 10.099"/><path d="m165.63 5.672 33.078 10.371"/><path d="m148.57 34.528 8.4325 3.9007"/><path d="m164.27 34.288 1.0746 3.892"/><path d="m181.81 34.288-11.883 4.1391"/><path d="m197.92 34.768-23.423 3.6614"/></g><ellipse cx="165.63" cy="5.672" rx="6.4665" ry="4.9657" style="fill:#ee7105;stroke:#b5161e;stroke-miterlimit:10;stroke-width:.70556;stroke-linecap:round;stroke-linejoin:round"/><text font-family="monospace" font-size="7.0556" stroke-width=".26458" x="161.24168" y="8.193462"><tspan font-family="monospace" font-size="7.0556" stroke-width=".26458" x="161.24168" y="8.193462">15</tspan></text><g fill="none" stroke="#000" stroke-linecap="round" stroke-linejoin="round" stroke-width=".70556"><path d="m148.57 22.688v3.3876"/><path d="m165.35 22.688v3.3876"/><path d="m182.56 22.688v3.3876"/><path d="m198.61 22.688v3.3876"/></g><path d="m153 38.428h25.274v8.8461h-25.274z" style="fill:#ee7105;stroke:#b5161e;stroke-miterlimit:10;stroke-width:.70556;stroke-linecap:round;stroke-linejoin:round"/><g font-family="monospace" font-size="4.2333" stroke-width=".26458"><text x="34.448841" y="21.055683"><tspan font-family="monospace" font-size="4.2333" stroke-width=".26458" x="34.448841" y="21.055683">16</tspan></text><text x="53.192856" y="21.055683"><tspan font-family="monospace" font-size="4.2333" stroke-width=".26458" x="53.192856" y="21.055683">+</tspan></text><text x="69.452271" y="21.055683"><tspan font-family="monospace" font-size="4.2333" stroke-width=".26458" x="69.452271" y="21.055683">4</tspan></text><text x="77.931976" y="21.055683"><tspan font-family="monospace" font-size="4.2333" stroke-width=".26458" x="77.931976" y="21.055683">+</tspan></text><text x="86.687386" y="21.055683"><tspan font-family="monospace" font-size="4.2333" stroke-width=".26458" x="86.687386" y="21.055683">2</tspan></text><text x="32.274559" y="32.35844"><tspan font-family="monospace" font-size="4.2333" stroke-width=".26458" x="32.274559" y="32.35844">1*2<tspan baseline-shift="super" font-family="monospace" font-size="65%">4</tspan></tspan></text><text x="61.071777" y="32.35844"><tspan font-family="monospace" font-size="4.2333" stroke-width=".26458" x="61.071777" y="32.35844">+</tspan></text><text x="65.942047" y="32.35844"><tspan font-family="monospace" font-size="4.2333" stroke-width=".26458" x="65.942047" y="32.35844">1*2<tspan baseline-shift="super" font-family="monospace" font-size="65%">2</tspan></tspan></text><text x="44.275654" y="32.35844"><tspan font-family="monospace" font-size="4.2333" stroke-width=".26458" x="44.275654" y="32.35844">+</tspan></text><text fill="#646464" x="49.145924" y="32.35844"><tspan fill="#646464" font-family="monospace" font-size="4.2333" stroke-width=".26458" x="49.145924" y="32.35844">0*2<tspan baseline-shift="super" fill="#646464" font-family="monospace" font-size="65%">3</tspan></tspan></text><text x="77.841026" xml:space="preserve" y="32.35844"><tspan font-family="monospace" font-size="4.2333" stroke-width=".26458" x="77.841026" y="32.35844">+ </tspan></text><text x="83.126778" y="32.358418"><tspan font-family="monospace" font-size="4.2333" stroke-width=".26458" x="83.126778" y="32.358418">1*2<tspan baseline-shift="super" font-family="monospace" font-size="65%">1</tspan></tspan></text><text x="95.072784" xml:space="preserve" y="32.35844"><tspan font-family="monospace" font-size="4.2333" stroke-width=".26458" x="95.072784" y="32.35844">+ </tspan></text><text fill="#646464" x="100.12495" y="32.35844"><tspan fill="#646464" font-family="monospace" font-size="4.2333" stroke-width=".26458" x="100.12495" y="32.35844">0*2<tspan baseline-shift="super" fill="#646464" font-family="monospace" font-size="65%">0</tspan></tspan></text></g><g fill="none" stroke="#000" stroke-linecap="round" stroke-linejoin="round" stroke-width=".70556"><path d="m71.016 5.672-33.902 10.228"/><path d="m71.016 5.672-.28526 10.206"/><path d="m71.016 5.672 16.923 10.099"/><path d="m37.114 34.538 25.266 3.8955"/><path d="m69.656 34.288 1.0746 3.892"/><path d="m87.196 34.288-11.883 4.1391"/></g><ellipse cx="71.015999" cy="5.672" rx="6.4665" ry="4.9657" style="fill:#ee7105;stroke:#b5161e;stroke-miterlimit:10;stroke-width:.70556;stroke-linecap:round;stroke-linejoin:round"/><text font-family="monospace" font-size="7.0556" stroke-width=".26458" x="66.806091" y="8.28989"><tspan font-family="monospace" font-size="7.0556" stroke-width=".26458" x="66.806091" y="8.28989">22</tspan></text><g fill="none" stroke="#000" stroke-linecap="round" stroke-linejoin="round" stroke-width=".70556"><path d="m37.114 22.708v3.3876"/><path d="m70.73 22.708v3.3876"/><path d="m87.938 22.708v3.3876"/></g><g style="fill:#ee7105;stroke:#b5161e;stroke-miterlimit:10;stroke-width:.70556;stroke-linecap:round;stroke-linejoin:round"><path d="m58.38 38.428h25.274v8.8461h-25.274z"/><ellipse cx="30.524" cy="84.938004" rx="6.4665" ry="4.9657"/></g><text font-family="monospace" font-size="7.0556" stroke-width=".26458" x="26.135786" y="87.461861"><tspan font-family="monospace" font-size="7.0556" stroke-width=".26458" x="26.135786" y="87.461861">15</tspan></text><path d="m43.846 80.515h25.274v8.8461h-25.274z" style="fill:#ee7105;stroke:#b5161e;stroke-linecap:round;stroke-linejoin:round;stroke-miterlimit:10;stroke-width:.70556"/><ellipse cx="30.524" cy="71.878" rx="6.4665" ry="4.9657" style="fill:#ee7105;stroke:#b5161e;stroke-linecap:round;stroke-linejoin:round;stroke-miterlimit:10;stroke-width:.70556"/><text font-family="monospace" font-size="7.0556" stroke-width=".26458" x="26.314924" y="74.500511"><tspan font-family="monospace" font-size="7.0556" stroke-width=".26458" x="26.314924" y="74.500511">22</tspan></text><g stroke-linecap="round" stroke-linejoin="round" stroke-width=".70556"><path d="m43.846 67.457h25.274v8.8461h-25.274z" fill="#ee7105" stroke="#b5161e" stroke-miterlimit="10"/><path d="m73.248 92.808h-72.543" fill="none" stroke="#000"/><ellipse cx="30.524" cy="100.69" fill="#ee7105" rx="6.4665" ry="4.9657" stroke="#b5161e" stroke-miterlimit="10"/></g><text font-family="monospace" font-size="7.0556" stroke-width=".26458" x="26.135742" y="103.25159"><tspan font-family="monospace" font-size="7.0556" stroke-width=".26458" x="26.135742" y="103.25159">31</tspan></text><path d="m43.844 96.258h25.274v8.8461h-25.274z" style="fill:#ee7105;stroke:#b5161e;stroke-linecap:round;stroke-linejoin:round;stroke-miterlimit:10;stroke-width:.70556"/><text font-family="monospace" font-size="10.583" stroke-width=".26458" text-anchor="middle" x="9.591417" y="103.57198"><tspan stroke-width=".26458" text-anchor="middle" x="9.591417" y="103.57198">or</tspan></text><ellipse cx="110.33" cy="84.938" rx="6.4665" ry="4.9657" style="fill:#ee7105;stroke:#b5161e;stroke-linecap:round;stroke-linejoin:round;stroke-miterlimit:10;stroke-width:.70556"/><text font-family="monospace" font-size="7.0556" stroke-width=".26458" x="105.94128" y="87.461861"><tspan font-family="monospace" font-size="7.0556" stroke-width=".26458" x="105.94128" y="87.461861">15</tspan></text><path d="m123.65 80.518h25.274v8.8461h-25.274z" style="fill:#ee7105;stroke:#b5161e;stroke-linecap:round;stroke-linejoin:round;stroke-miterlimit:10;stroke-width:.70556"/><ellipse cx="110.33" cy="71.878" rx="6.4665" ry="4.9657" style="fill:#ee7105;stroke:#b5161e;stroke-linecap:round;stroke-linejoin:round;stroke-miterlimit:10;stroke-width:.70556"/><text font-family="monospace" font-size="7.0556" stroke-width=".26458" x="106.12041" y="74.500511"><tspan font-family="monospace" font-size="7.0556" stroke-width=".26458" x="106.12041" y="74.500511">22</tspan></text><g stroke-linecap="round" stroke-linejoin="round" stroke-width=".70556"><path d="m123.65 67.458h25.274v8.8461h-25.274z" fill="#ee7105" stroke="#b5161e" stroke-miterlimit="10"/><path d="m153.06 92.808h-72.543" fill="none" stroke="#000"/><ellipse cx="110.33" cy="100.69" fill="#ee7105" rx="6.4665" ry="4.9657" stroke="#b5161e" stroke-miterlimit="10"/></g><text font-family="monospace" font-size="7.0556" stroke-width=".26458" x="108.20638" y="103.25159"><tspan font-family="monospace" font-size="7.0556" stroke-width=".26458" x="108.20638" y="103.25159">6</tspan></text><path d="m123.65 96.258h25.274v8.8461h-25.274z" style="fill:#ee7105;stroke:#b5161e;stroke-linecap:round;stroke-linejoin:round;stroke-miterlimit:10;stroke-width:.70556"/><text font-family="monospace" font-size="10.583" stroke-width=".26458" text-anchor="middle" x="89.396904" y="103.57198"><tspan stroke-width=".26458" text-anchor="middle" x="89.396904" y="103.57198">and</tspan></text><path d="m232.86 92.808h-72.543" fill="none" stroke="#000" stroke-linecap="round" stroke-linejoin="round" stroke-width=".70556"/><g font-family="monospace" stroke-width=".26458"><g font-size="10.583"><text text-anchor="middle" x="169.20241" y="103.57198"><tspan stroke-width=".26458" text-anchor="middle" x="169.20241" y="103.57198">xor</tspan></text><text x="6.989119" y="73.008141"><tspan stroke-width=".26458" x="6.989119" y="73.008141">|</tspan></text><text x="85.944931" y="75.734703"><tspan stroke-width=".26458" x="85.944931" y="75.734703">&amp;</tspan></text><text x="166.0114" y="78.158318"><tspan stroke-width=".26458" x="166.0114" y="78.158318">^</tspan></text></g><g font-size="4.9389"><text x="61.537289" y="44.648876"><tspan>1</tspan></text><text x="65.598038" y="44.648876"><tspan>0</tspan></text><text x="69.400749" y="44.648876"><tspan>1</tspan></text><text x="73.188995" y="44.648876"><tspan>1</tspan></text><text x="77.249748" y="44.648876"><tspan>0</tspan></text><text fill="#0000fe" x="47.003281" y="73.677879"><tspan fill="#0000fe">1</tspan></text><text x="51.06403" y="73.677879"><tspan>0</tspan></text><text fill="#0000fe" x="54.866741" y="73.677879"><tspan fill="#0000fe">1</tspan></text><text fill="#0000fe" x="58.654987" y="73.677879"><tspan fill="#0000fe">1</tspan></text><text x="62.71574" y="73.677879"><tspan>0</tspan></text><text x="126.80428" y="73.678879"><tspan>1</tspan></text><text x="130.86504" y="73.678879"><tspan>0</tspan></text><text fill="#00f" x="134.66774" y="73.678879"><tspan fill="#00f">1</tspan></text><text fill="#00f" x="138.45599" y="73.678879"><tspan fill="#00f">1</tspan></text><text x="142.51674" y="73.678879"><tspan>0</tspan></text><text x="156.49855" y="44.648876"><tspan>0</tspan></text><text x="160.33714" y="44.648876"><tspan>1</tspan></text><text x="164.16124" y="44.648876"><tspan>1</tspan></text><text x="167.98534" y="44.648876"><tspan>1</tspan></text><text x="171.80945" y="44.648876"><tspan>1</tspan></text><text x="127.14855" y="86.738876"><tspan>0</tspan></text><text x="130.98714" y="86.738876"><tspan>1</tspan></text><text fill="#00f" x="134.81123" y="86.738876"><tspan fill="#00f">1</tspan></text><text fill="#00f" x="138.63533" y="86.738876"><tspan fill="#00f">1</tspan></text><text x="142.45944" y="86.738876"><tspan>1</tspan></text><text x="127.14855" y="102.47887"><tspan>0</tspan></text><text x="130.98714" y="102.47887"><tspan>0</tspan></text><text x="134.81123" y="102.47887"><tspan>1</tspan></text><text x="138.63533" y="102.47887"><tspan>1</tspan></text><text x="142.45944" y="102.47887"><tspan>0</tspan></text><text x="47.348557" y="86.736176"><tspan>0</tspan></text><g fill="#0000fe"><text x="51.187149" y="86.736176"><tspan fill="#0000fe">1</tspan></text><text x="55.011246" y="86.736176"><tspan fill="#0000fe">1</tspan></text><text x="58.835342" y="86.736176"><tspan fill="#0000fe">1</tspan></text><text x="62.659454" y="86.736176"><tspan fill="#0000fe">1</tspan></text></g><text x="47.346554" y="102.47887"><tspan>1</tspan></text><text x="51.185146" y="102.47887"><tspan>1</tspan></text><text x="55.009243" y="102.47887"><tspan>1</tspan></text><text x="58.83334" y="102.47887"><tspan>1</tspan></text><text x="62.657452" y="102.47887"><tspan>1</tspan></text></g></g></svg>