<svg height="301.48pt" viewBox="0 0 233.57 106.35" width="662.08pt" xmlns="http://www.w3.org/2000/svg"><g font-family="monospace" font-size="4.2333" stroke-width=".26458"><text x="34.448841" y="21.055683"><tspan font-family="monospace" font-size="4.2333" stroke-width=".26458" x="34.448841" y="21.055683">16</tspan></text><text x="53.192856" y="21.055683"><tspan font-family="monospace" font-size="4.2333" stroke-width=".26458" x="53.192856" y="21.055683">+</tspan></text><text x="69.452271" y="21.055683"><tspan font-family="monospace" font-size="4.2333" stroke-width=".26458" x="69.452271" y="21.055683">4</tspan></text><text x="77.931976" y="21.055683"><tspan font-family="monospace" font-size="4.2333" stroke-width=".26458" x="77.931976" y="21.055683">+</tspan></text><text x="86.687386" y="21.055683"><tspan font-family="monospace" font-size="4.2333" stroke-width=".26458" x="86.687386" y="21.055683">2</tspan></text><text x="32.274559" y="32.35844"><tspan font-family="monospace" font-size="4.2333" stroke-width=".26458" x="32.274559" y="32.35844">1*2<tspan baseline-shift="super" font-family="monospace" font-size="65%">4</tspan></tspan></text><text x="61.071777" y="32.35844"><tspan font-family="monospace" font-size="4.2333" stroke-width=".26458" x="61.071777" y="32.35844">+</tspan></text><text x="65.942047" y="32.35844"><tspan font-family="monospace" font-size="4.2333" stroke-width=".26458" x="65.942047" y="32.35844">1*2<tspan baseline-shift="super" font-family="monospace" font-size="65%">2</tspan></tspan></text><text x="44.275654" y="32.35844"><tspan font-family="monospace" font-size="4.2333" stroke-width=".26458" x="44.275654" y="32.35844">+</tspan></text><text fill="#646464" x="49.145924" y="32.35844"><tspan fill="#646464" font-family="monospace" font-size="4.2333" stroke-width=".26458" x="49.145924" y="32.35844">0*2<tspan baseline-shift="super" fill="#646464" font-family="monospace" font-size="65%">3</tspan></tspan></text><text x="77.841026" xml:space="preserve" y="32.35844"><tspan font-family="monospace" font-size="4.2333" stroke-width=".26458" x="77.841026" y="32.35844">+ </tspan></text><text x="83.126778" y="32.358418"><tspan font-family="monospace" font-size="4.2333" stroke-width=".26458" x="83.126778" y="32.358418">1*2<tspan baseline-shift="super" font-family="monospace" font-size="65%">1</tspan></tspan></text></g><g stroke-linecap="round" stroke-linejoin="round" stroke-width=".70556"><g fill="none" stroke="#000"><path d="m71.016 5.672-33.902 10.228"/><path d="m71.016 5.672-.28526 10.206"/><path d="m71.016 5.672 16.923 10.099"/></g><ellipse cx="71.015999" cy="5.672" fill="#ee7105" rx="6.4665" ry="4.9657" stroke="#b5161e" stroke-miterlimit="10"/></g><text font-family="monospace" font-size="7.0556" stroke-width=".26458" x="66.806091" y="8.28989"><tspan font-family="monospace" font-size="7.0556" stroke-width=".26458" x="66.806091" y="8.28989">22</tspan></text><g fill="none" stroke="#000" stroke-linecap="round" stroke-linejoin="round" stroke-width=".70556"><path d="m37.114 22.708v3.3876"/><path d="m70.73 22.708v3.3876"/><path d="m87.938 22.708v3.3876"/></g></svg>