<?xml version="1.0" encoding="UTF-8"?>
<svg width="543pt" height="292pt" version="1.1" viewBox="0 0 543 292" xmlns="http://www.w3.org/2000/svg"><defs><marker id="g" overflow="visible" markerHeight="5" markerWidth="5" orient="auto-start-reverse" preserveAspectRatio="none" viewBox="0 0 4.0606602 6.7071068"><path transform="rotate(180 .125 0)" d="m3-3-3 3 3 3" fill="none" stroke="context-stroke"/></marker><marker id="a" overflow="visible" markerHeight="2.714" markerWidth="4.7494998" orient="auto-start-reverse" preserveAspectRatio="xMidYMid" viewBox="0 0 8.75 5"><path d="m0 0-2.5 2.5 8.75-2.5-8.75-2.5z" fill="context-stroke" fill-rule="evenodd"/></marker><marker id="b" overflow="visible" markerHeight="5" markerWidth="5" orient="auto-start-reverse" preserveAspectRatio="none" viewBox="0 0 4.0606602 6.7071068"><path transform="rotate(180 .125 0)" d="m3-3-3 3 3 3" fill="none" stroke="context-stroke"/></marker><marker id="f" overflow="visible" markerHeight="5" markerWidth="5" orient="auto-start-reverse" preserveAspectRatio="none" viewBox="0 0 4.0606602 6.7071068"><path transform="rotate(180 .125 0)" d="m3-3-3 3 3 3" fill="none" stroke="context-stroke"/></marker><marker id="d" overflow="visible" markerHeight="5" markerWidth="5" orient="auto-start-reverse" preserveAspectRatio="none" viewBox="0 0 4.0606602 6.7071068"><path transform="rotate(180 .125 0)" d="m3-3-3 3 3 3" fill="none" stroke="context-stroke"/></marker></defs><text x="330.79459" y="287.18234" fill="#00c800" font-family="'Nimbus Sans'" font-size="20px" style="line-height:1.25" xml:space="preserve"><tspan x="330.79459" y="287.18234" fill="#00c800" font-size="20px">b</tspan></text><text x="184.37456" y="287.18234" fill="#0000c8" font-family="'Nimbus Sans'" font-size="20px" style="line-height:1.25" xml:space="preserve"><tspan x="184.37456" y="287.18234" fill="#0000c8" font-size="20px">a</tspan></text><text x="204.78865" y="290.97852" fill="#0000c8" font-family="'Nimbus Sans'" font-size="16px" style="line-height:1.25" xml:space="preserve"><tspan x="204.78865" y="290.97852" fill="#000000">h</tspan></text><text x="225.95898" y="290.97852" fill="#0000c8" font-family="'Nimbus Sans'" font-size="16px" style="line-height:1.25" xml:space="preserve"><tspan x="225.95898" y="290.97852" fill="#000000">h</tspan></text><text x="247.12932" y="290.97852" fill="#0000c8" font-family="'Nimbus Sans'" font-size="16px" style="line-height:1.25" xml:space="preserve"><tspan x="247.12932" y="290.97852" fill="#000000">h</tspan></text><text x="268.29971" y="290.97852" fill="#0000c8" font-family="'Nimbus Sans'" font-size="16px" style="line-height:1.25" xml:space="preserve"><tspan x="268.29971" y="290.97852" fill="#000000">h</tspan></text><line x1="219.39" x2="219.39" y1="25.539" y2="269.5" fill="none" stroke="#000"/><line x1="240.79" x2="240.79" y1="9.6872" y2="269.5" fill="none" stroke="#000"/><line x1="262.2" x2="262.2" y1="5.857" y2="269.51" fill="none" stroke="#000"/><line x1="283.6" x2="283.6" y1="269.51" y2="9.6868" fill="#782121" stroke="#000"/><path d="m519.04 261.49c-24.953 0-46.026-6.1981-64.183-16.671-26.434-15.229-46.695-39.513-63.746-66.896-24.97-40.083-43.083-86.809-63.666-121.57-17.863-30.171-37.581-51.33-65.244-51.33-27.735 0-47.48 21.266-65.378 51.553-20.547 34.775-38.651 81.439-63.595 121.46-17.194 27.588-37.643 52.016-64.388 67.19-17.997 10.232-38.847 16.27-63.479 16.27" fill="none" stroke="#f00" stroke-linecap="round" stroke-linejoin="round" stroke-width="8"/><path d="m219.81 269.5v9.0529" fill="none" stroke="#000" stroke-width=".75px"/><path d="m241 269.5v9.0529" fill="none" stroke="#000" stroke-width=".75px"/><path d="m262.2 269.51v9.0529" fill="none" stroke="#000" stroke-width=".75px"/><path d="m283.39 269.51v9.0529" fill="none" stroke="#000" stroke-width=".75px"/><path d="m218.67 275.53h-18.877" fill="none" marker-end="url(#g)" marker-start="url(#g)" stroke="#000" stroke-width=".75px"/><path d="m239.84 275.53h-18.877" fill="none" marker-end="url(#b)" marker-start="url(#b)" stroke="#000" stroke-width=".75px"/><path d="m261.01 275.53h-18.877" fill="none" marker-end="url(#f)" marker-start="url(#f)" stroke="#000" stroke-width=".75px"/><path d="m282.18 275.53h-18.877" fill="none" marker-end="url(#d)" marker-start="url(#d)" stroke="#000" stroke-width=".75px"/><text x="9.9019079" y="65.11422" font-family="'Nimbus Sans'" font-size="15.218px" stroke-width=".75" style="line-height:1.25" xml:space="preserve"><tspan x="9.9019079" y="65.11422">n = 6</tspan><tspan x="9.9019079" y="84.13694">h = (b - a) / n = (b - a) / 6</tspan></text><path d="m126.98 187.68-45.4-17.212" fill="none" stroke="#fd0000" stroke-width=".75px"/><text x="45.183849" y="166.85754" fill="#ff0000" font-family="'Nimbus Sans'" font-size="24.549px" stroke-width=".75" style="line-height:1.25" xml:space="preserve"><tspan x="45.183849" y="166.85754" fill="#ff0000" stroke-width=".75">f(x)</tspan></text><text x="329.47379" y="39.1782" font-family="'Nimbus Sans'" font-size="6.7615px" stroke-width=".68933" style="line-height:1.25" xml:space="preserve"><tspan x="329.47379" y="39.1782" fill="#0000c8" font-size="6.7615px" stroke-width=".75"/></text><path d="m197.99 54.618-23.154-19.745" fill="none" stroke="#0000c8" stroke-width=".75px"/><text x="143.28998" y="32.489929" font-family="'Nimbus Sans'" font-size="20.648px" stroke-width=".75" style="line-height:1.25" xml:space="preserve"><tspan x="143.28998" y="32.489929" fill="#ff0000" stroke-width=".75">f(<tspan fill="#0000ff" stroke-width=".43588">a</tspan>)</tspan></text><path d="m197.99 269.5v-214.88l21.403-29.079v243.96h-21.403" fill="#64ff64" stroke="#000"/><path d="m219.39 269.5v-243.96l21.403-15.852v259.81h-21.403" fill="#6464ff" stroke="#000"/><path d="m240.79 269.5v-259.81l21.403-3.8302v263.65l-21.403-5e-3" fill="#f0f" stroke="#000"/><path d="m262.2 269.51v-263.65l21.403 3.8298v259.82z" fill="#ff0" stroke="#000"/><line x1="326.41" x2="326.41" y1="54.237" y2="278.56" fill="none" stroke="#00c800" stroke-width="6"/><line x1="197.99" x2="197.99" y1="54.237" y2="278.56" fill="none" stroke="#0000c8" stroke-width="6"/><polyline transform="matrix(.8918 0 0 .89053 -123.06 -89.825)" points="720 403.5 648 403.5 576 403.5 504 403.5 432 403.5 360.17 403.5 288 403.5 216.16 403.5 144 403.5" fill="none" marker-start="url(#a)" stroke="#000" stroke-linecap="round" stroke-linejoin="round" stroke-width="4.4885"/><text x="204.23506" y="87.475349" fill="#ffffff" font-family="'Nimbus Sans'" font-size="20px" font-weight="bold" stroke="#000000" stroke-linecap="round" stroke-linejoin="round" style="line-height:1.25" xml:space="preserve"><tspan x="204.23506" y="87.475349" fill="#ffffff" font-family="'Nimbus Sans'" font-size="20px" font-weight="bold" stroke="#000000" stroke-linecap="round" stroke-linejoin="round">1</tspan></text><text x="224.64505" y="87.475349" fill="#ffffff" font-family="'Nimbus Sans'" font-size="20px" font-weight="bold" stroke="#000000" stroke-linecap="round" stroke-linejoin="round" style="line-height:1.25" xml:space="preserve"><tspan x="224.64505" y="87.475349" fill="#ffffff" font-family="'Nimbus Sans'" font-size="20px" font-weight="bold" stroke="#000000" stroke-linecap="round" stroke-linejoin="round">2</tspan></text><text x="246.04506" y="87.199348" fill="#ffffff" font-family="'Nimbus Sans'" font-size="20px" font-weight="bold" stroke="#000000" stroke-linecap="round" stroke-linejoin="round" style="line-height:1.25" xml:space="preserve"><tspan x="246.04506" y="87.199348" fill="#ffffff" font-family="'Nimbus Sans'" font-size="20px" font-weight="bold" stroke="#000000" stroke-linecap="round" stroke-linejoin="round">3</tspan></text><text x="267.44507" y="87.475349" fill="#ffffff" font-family="'Nimbus Sans'" font-size="20px" font-weight="bold" stroke="#000000" stroke-linecap="round" stroke-linejoin="round" style="line-height:1.25" xml:space="preserve"><tspan x="267.44507" y="87.475349" fill="#ffffff" font-family="'Nimbus Sans'" font-size="20px" font-weight="bold" stroke="#000000" stroke-linecap="round" stroke-linejoin="round">4</tspan></text><ellipse cx="198.23" cy="54.237" rx="3.9062" ry="3.8897" fill="#0000c8"/><text x="327.48657" y="30.741791" font-family="'Nimbus Sans'" font-size="18px" stroke-width=".68933" style="line-height:1.25" xml:space="preserve"><tspan x="327.48657" y="30.741791" stroke-width=".75"><tspan font-family="'Linux Biolinum'" font-size="26px" font-style="italic" stroke-width=".63357">∫<tspan font-size="12px"> </tspan></tspan><tspan font-size="18px" stroke-width=".68933">f(x)</tspan><tspan font-size="12px"> </tspan>dx<tspan font-size="12px"> </tspan></tspan></text><text x="332.23367" y="38.753437" font-family="'Nimbus Sans'" font-size="12px" stroke-width=".68933" style="line-height:1.25" xml:space="preserve"><tspan x="332.23367" y="38.753437" fill="#0000c8" font-size="12px" stroke-width=".75">a</tspan></text><text x="341.46289" y="13.72" font-family="'Nimbus Sans'" font-size="12px" stroke-width=".68933" style="line-height:1.25" xml:space="preserve"><tspan x="341.46289" y="13.72" fill="#00c800" font-size="12px" stroke-width=".75">b</tspan></text></svg>
