<?xml version="1.0" encoding="UTF-8"?>
<svg width="543pt" height="292pt" version="1.1" viewBox="0 0 543 292" xmlns="http://www.w3.org/2000/svg"><defs><marker id="a" overflow="visible" markerHeight="2.714" markerWidth="4.7494998" orient="auto-start-reverse" preserveAspectRatio="xMidYMid" viewBox="0 0 8.75 5"><path d="m0 0-2.5 2.5 8.75-2.5-8.75-2.5z" fill="context-stroke" fill-rule="evenodd"/></marker></defs><path d="m519.04 261.49c-24.953 0-46.026-6.1981-64.183-16.671-26.434-15.229-46.695-39.513-63.746-66.896-24.97-40.083-43.083-86.809-63.666-121.57-17.863-30.171-37.581-51.33-65.244-51.33-27.735 0-47.48 21.266-65.378 51.553-20.547 34.775-38.651 81.439-63.595 121.46-17.194 27.588-37.643 52.016-64.388 67.19-17.997 10.232-38.847 16.27-63.479 16.27" fill="none" stroke="#f00" stroke-linecap="round" stroke-linejoin="round" stroke-width="8"/><path d="m126.98 187.68-45.4-17.212" fill="none" stroke="#fd0000" stroke-width=".75px"/><text x="45.183849" y="166.85754" fill="#ff0000" font-family="'Nimbus Sans'" font-size="24.549px" stroke-width=".75" style="line-height:1.25" xml:space="preserve"><tspan x="45.183849" y="166.85754" fill="#ff0000" stroke-width=".75">f(x)</tspan></text><text x="329.47379" y="39.1782" font-family="'Nimbus Sans'" font-size="6.7615px" stroke-width=".68933" style="line-height:1.25" xml:space="preserve"><tspan x="329.47379" y="39.1782" fill="#0000c8" font-size="6.7615px" stroke-width=".75"/></text><polyline transform="matrix(.8918 0 0 .89053 -123.06 -89.825)" points="720 403.5 648 403.5 576 403.5 504 403.5 432 403.5 360.17 403.5 288 403.5 216.16 403.5 144 403.5" fill="none" marker-start="url(#a)" stroke="#000" stroke-linecap="round" stroke-linejoin="round" stroke-width="4.4885"/></svg>
