<?xml version="1.0" encoding="UTF-8"?>
<svg width="141.15pt" height="126.47pt" version="1.1" viewBox="0 0 49.793 44.617" xmlns="http://www.w3.org/2000/svg"><defs><marker id="a" overflow="visible" orient="auto"><path transform="scale(-.6)" d="m8.7186 4.0337-10.926-4.0177 10.926-4.0177c-1.7455 2.3721-1.7354 5.6175-6e-7 8.0354z" fill="context-stroke" fill-rule="evenodd" stroke="context-stroke" stroke-linejoin="round" stroke-width=".625"/></marker><marker id="b" overflow="visible" orient="auto"><path transform="scale(-.6)" d="m8.7186 4.0337-10.926-4.0177 10.926-4.0177c-1.7455 2.3721-1.7354 5.6175-6e-7 8.0354z" fill="context-stroke" fill-rule="evenodd" stroke="context-stroke" stroke-linejoin="round" stroke-width=".625"/></marker></defs><g transform="translate(-22.698 -71.054)"><rect x="23.227" y="71.406" width="14.754" height="43.911" fill="#b4cfed" style="paint-order:markers fill stroke"/><rect x="23.227" y="76.211" width="14.754" height="4.9003" fill="none" stroke="#1e16b5" stroke-linecap="round" stroke-linejoin="round" stroke-width=".35278" style="paint-order:markers stroke fill"/><rect x="23.227" y="86.012" width="14.754" height="4.9003" fill="none" stroke="#1e16b5" stroke-linecap="round" stroke-linejoin="round" stroke-width=".35278" style="paint-order:markers stroke fill"/><rect x="23.227" y="90.912" width="14.754" height="4.9003" fill="none" stroke="#1e16b5" stroke-linecap="round" stroke-linejoin="round" stroke-width=".35278" style="paint-order:markers stroke fill"/><rect x="23.227" y="95.812" width="14.754" height="4.9003" fill="none" stroke="#1e16b5" stroke-linecap="round" stroke-linejoin="round" stroke-width=".35278" style="paint-order:markers stroke fill"/><rect x="23.227" y="100.71" width="14.754" height="4.9003" fill="none" stroke="#1e16b5" stroke-linecap="round" stroke-linejoin="round" stroke-width=".35278" style="paint-order:markers stroke fill"/><rect x="23.227" y="105.61" width="14.754" height="4.9003" fill="none" stroke="#1e16b5" stroke-linecap="round" stroke-linejoin="round" stroke-width=".35278" style="paint-order:markers stroke fill"/><rect x="23.227" y="81.111" width="14.754" height="4.9003" fill="none" stroke="#1e16b5" stroke-linecap="round" stroke-linejoin="round" stroke-width=".35278" style="paint-order:markers stroke fill"/><text x="27.262007" y="90.002754" font-family="'DejaVu Sans'" font-size="4.2333px" font-weight="bold" stroke-width=".26458" style="line-height:1.25" xml:space="preserve"><tspan x="27.262007" y="90.002754" font-family="'DejaVu Sans'" font-weight="normal" stroke-width=".26458">3.5</tspan></text><text x="29.273249" y="109.60588" font-family="'DejaVu Sans'" font-size="4.2333px" font-weight="bold" stroke-width=".26458" style="line-height:1.25" xml:space="preserve"><tspan x="29.273249" y="109.60588" font-family="'DejaVu Sans'" font-weight="normal" stroke-width=".26458">4</tspan></text><path d="m49.035 82.938c-11.054 0 0.04751 25.125-11.054 25.125" fill="none" marker-end="url(#b)" stroke="#000" stroke-width=".35278"/><path d="m49.035 93.362-4.8215-2.1375c-0.49698-1.5128-0.90716-0.82311-1.3354-0.59201l-4.8967-2.1708" fill="none" stroke="#fff" stroke-width=".70556"/><path d="m49.035 93.362-4.8215-2.1375c-0.49698-1.5128-0.90716-0.82311-1.3354-0.59201l-4.8967-2.1708" fill="none" marker-end="url(#a)" stroke="#000" stroke-width=".35278"/><rect x="49.035" y="79.519" width="22.927" height="6.8379" fill="#edcfb4" stroke="#b5161e" stroke-linecap="round" stroke-linejoin="round" stroke-width=".353" style="paint-order:fill markers stroke"/><text x="52.172447" y="84.047112" font-family="'DejaVu Sans'" font-size="4.2333px" font-weight="bold" stroke-width=".26458" style="line-height:1.25" xml:space="preserve"><tspan x="52.172447" y="84.047112" stroke-width=".26458">int_var</tspan></text><rect x="49.035" y="89.943" width="22.927" height="6.8379" fill="#edcfb4" stroke="#b5161e" stroke-linecap="round" stroke-linejoin="round" stroke-width=".353" style="paint-order:fill markers stroke"/><text x="50.090923" y="94.471008" font-family="'DejaVu Sans'" font-size="4.2333px" font-weight="bold" stroke-width=".26458" style="line-height:1.25" xml:space="preserve"><tspan x="50.090923" y="94.471008" stroke-width=".26458">float_var</tspan></text></g></svg>
