<svg height="177.21pt" viewBox="0 0 229.52 62.516" width="650.61pt" xmlns="http://www.w3.org/2000/svg"><g fill="none"><path d="m210.72 45.04-17.3 9.9998-17.3-9.9998v-20l17.3-9.9998 17.3 9.9998z" stroke="#646464" stroke-linecap="round" stroke-linejoin="round" stroke-width=".35278"/><g stroke-width=".26458"><g stroke="#646464"><path d="m193.4 35.04-9.9922 17.321"/><path d="m173.41 35.04 39.996.00002"/><path d="m183.4 17.72 19.999 34.638"/><path d="m210.72 45.04-34.6-20"/><path d="m193.42 35.04-17.3 9.9999"/><path d="m193.42 35.04v20"/><path d="m143.94 44.11-34.6-20"/><path d="m126.64 34.11-17.3 9.9999"/><path d="m126.64 34.11v20"/><path d="m126.63 34.11-9.9922 17.321"/><path d="m106.64 34.11 39.996.00002"/><path d="m116.63 16.79 19.999 34.638"/><path d="m37.999 43.38-34.6-20"/><path d="m20.698 33.38-17.3 9.9999"/><path d="m20.698 33.38-.000002 20"/><path d="m193.42 34.93-5.2042 19.422"/><path d="m179.24 49.15 28.274-28.249"/><path d="m212.69 29.87-38.592 10.335"/><path d="m174.09 29.88 38.592 10.336"/><path d="m207.52 49.18-28.272-28.251"/><path d="m188.19 15.74 10.376 38.619"/></g><path d="m203.4 17.72-9.9971 17.325" stroke="#66c"/><path d="m210.72 25.04-17.3 9.9999" stroke="#646464"/><g stroke="#c66"><path d="m193.42 15.04v20"/><path d="m143.94 24.11-17.3 9.9999"/><path d="m126.64 14.11v20"/></g></g></g><path d="m45.224 42.573h51.372v-2.7376l5.4786 5.4751-5.4786 5.4786v-2.7376h-51.372z" fill="#ee7105" stroke="#b5161e" stroke-miterlimit="10" stroke-width=".17639"/><path d="m52.084057 42.485429.000517 5.653941h6.32522l9.806675-5.653941z" fill="#fff" fill-opacity=".8" stroke-miterlimit="10" stroke-width=".17639"/><text font-family="'DejaVu Sans'" font-size="5.6444" font-weight="bold" stroke-width=".26458" x="119.07382" y="62.083485"><tspan font-family="'DejaVu Sans'" font-size="5.6444" font-weight="normal" stroke-width=".26458" x="119.07382" y="62.083485">e=12</tspan></text><g fill="none"><circle cx="126.64" cy="34.11" r="19.998" stroke="#808080" stroke-linecap="round" stroke-linejoin="round" stroke-width=".70556"/><path d="m143.94 44.106-17.3 9.9998-17.3-9.9998v-20l17.3-9.9998 17.3 9.9998z" stroke="#c00" stroke-linecap="round" stroke-linejoin="round" stroke-width=".35278"/><path d="m136.63 16.79-9.9971 17.325" stroke="#66c" stroke-width=".26458"/><path d="m109.31 44.102-2.6791-9.9989 2.6793-9.9989 7.3198-7.3196 9.9989-2.6791 9.9989 2.6793 7.3196 7.3198 2.6791 9.9989-2.6793 9.9989-7.3198 7.3196-9.9989 2.6791-9.9989-2.6793z" stroke="#00c" stroke-linecap="round" stroke-linejoin="round" stroke-width=".35278"/></g><text font-family="'DejaVu Sans'" font-size="5.6444" font-weight="bold" stroke-width=".26458" x="14.824056" y="62.083485"><tspan font-family="'DejaVu Sans'" font-size="5.6444" font-weight="normal" stroke-width=".26458" x="14.824056" y="62.083485">e=6</tspan></text><g fill="none"><circle cx="20.698" cy="33.38" r="19.998" stroke="#808080" stroke-linecap="round" stroke-linejoin="round" stroke-width=".70556"/><path d="m37.999 23.38-17.3 9.9999" stroke="#c66" stroke-width=".26458"/><path d="m20.698 13.38-.000002 20" stroke="#c66" stroke-width=".26458"/><path d="m37.999 43.375-17.3 9.9998-17.3-9.9998v-20l17.3-9.9998 17.3 9.9998z" stroke="#c00" stroke-linecap="round" stroke-linejoin="round" stroke-width=".35278"/></g><text font-family="'DejaVu Sans'" font-size="5.6444" font-weight="bold" stroke-width=".26458" x="185.7298" y="62.083485"><tspan font-family="'DejaVu Sans'" font-size="5.6444" font-weight="normal" stroke-width=".26458" x="185.7298" y="62.083485">e=24</tspan></text><g fill="none"><circle cx="193.42" cy="35.04" r="19.998" stroke="#808080" stroke-linecap="round" stroke-linejoin="round" stroke-width=".70556"/><path d="m176.09 45.036-2.6791-9.9989 2.6793-9.9989 7.3198-7.3196 9.9989-2.6791 9.9989 2.6793 7.3196 7.3198 2.6791 9.9989-2.6793 9.9989-7.3198 7.3196-9.9989 2.6791-9.9989-2.6793z" stroke="#00c" stroke-linecap="round" stroke-linejoin="round" stroke-width=".35278"/><path d="m198.56 15.72-5.1555 19.32" stroke="#00a066" stroke-width=".26458"/><path d="m210.69 45.041-3.1744 4.1417-4.1369 3.1781-4.8175 1.9978-5.1698.68142-5.1698-.68142-4.8175-1.9978-4.1369-3.1781-3.1744-4.1417-1.9955-4.823-.68063-5.1758.68063-5.1758 1.9955-4.823 3.1744-4.1417 4.1369-3.1781 4.8175-1.9978 5.1698-.68142 5.1698.68142 4.8175 1.9978 4.1369 3.1781 3.1744 4.1417 1.9955 4.823.68064 5.1758-.68064 5.1758z" stroke="#00a000" stroke-linecap="round" stroke-linejoin="round" stroke-width=".35279"/></g><path d="m151.16 42.573h12.213v-2.7376l5.4786 5.4751-5.4786 5.4786v-2.7376h-12.213z" fill="#ee7105" stroke="#b5161e" stroke-miterlimit="10" stroke-width=".17639"/><g fill="none"><path d="m71.46 13.94 1.0791-1.8691 1.8691 1.0791" stroke="#000" stroke-linecap="round" stroke-linejoin="round" stroke-width=".35278"/><g stroke-width="1.4111"><path d="m76.154 10.13-2.8295 4.895" stroke="#80a000"/><path d="m73.329 15.02-18.201 31.525" stroke="#00a0a0"/></g></g><g font-family="DejaVu Sans" font-size="4.8938" font-weight="bold" stroke-width=".26458"><text fill="#c66" transform="matrix(.86603 -.5 .5 .86603 0 0)" x="45.132355" y="72.595825"><tspan fill="#c66" font-family="'DejaVu Sans'" font-weight="normal" stroke-width=".26458" x="45.132355" y="72.595825">r</tspan></text><text fill="#00a0a0" transform="matrix(.4615 -.88714 .88714 .4615 0 0)" x="3.216032" y="70.098488"><tspan fill="#00a0a0" font-family="'DejaVu Sans'" font-weight="normal" stroke-width=".26458" x="3.216032" y="70.098488">x</tspan></text><text fill="#80a000" transform="matrix(.4615 -.88714 .88714 .4615 0 0)" x="21.791655" y="76.013519"><tspan fill="#80a000" font-family="'DejaVu Sans'" font-weight="normal" stroke-width=".26458" x="21.791655" y="76.013519">y</tspan></text><text fill="#c66" transform="rotate(-90)" x="-26.75886" y="53.393211"><tspan fill="#c66" font-family="'DejaVu Sans'" font-weight="normal" stroke-width=".26458" x="-26.75886" y="53.393211">r</tspan></text></g><g fill="none"><g stroke-width=".70556"><path d="m91.588 25.52c-7.2904-12.565-20.904-21.018-36.497-21.018" stroke="#808080" stroke-linecap="round" stroke-linejoin="round"/><g stroke="#c66"><path d="m91.552 25.54-36.474 21.039"/><path d="m55.09 4.5-.01792 42.067"/></g></g><path d="m55.09 4.5 36.462 21.039" stroke="#c00" stroke-linecap="round" stroke-linejoin="round" stroke-width=".70556"/><path d="m76.156 10.13-21.065 36.443" stroke="#66c" stroke-width=".52917"/><path d="m55.09 4.5 21.074 5.6369" stroke="#00c" stroke-linecap="round" stroke-linejoin="round" stroke-width=".70556"/></g><text style="fill:#00c;font-family:DejaVu Sans;font-size:4.8938;font-weight:bold;stroke:#fff;stroke-linecap:round;stroke-linejoin:round;stroke-width:.705556" transform="matrix(.97476 .22327 -.22327 .97476 0 0)" x="62.412491" y="-9.400264"><tspan style="fill:#00c;font-family:DejaVu Sans;font-weight:normal;stroke:#fff;stroke-linecap:round;stroke-linejoin:round;stroke-width:.705556" x="62.412491" y="-9.400264">s<tspan style="baseline-shift:sub;fill:#00c;font-size:3.181;stroke:#fff;stroke-linecap:round;stroke-linejoin:round;stroke-width:.705556">12</tspan></tspan></text><text fill="#c00" font-family="'DejaVu Sans'" font-size="4.8938" font-weight="bold" stroke-width=".26458" transform="matrix(.88007 .47484 -.47484 .88007 0 0)" x="59.024742" y="-18.41342"><tspan fill="#c00" font-family="'DejaVu Sans'" font-weight="normal" stroke-width=".26458" x="59.024742" y="-18.41342">s<tspan baseline-shift="sub" fill="#c00" font-size="3.181" stroke-width=".26458">6</tspan></tspan></text><circle cx="72.88" cy="13.513" r=".31218"/><text style="font-weight:bold;font-size:4.89382;font-family:DejaVu Sans;fill:#00c;stroke-width:.705558;stroke-linecap:round;stroke-linejoin:round" transform="matrix(.97475681 .22326927 -.22326927 .97475681 0 0)" x="62.412693" y="-9.400294"><tspan style="font-weight:normal;font-family:DejaVu Sans;fill:#00c;stroke-width:.705558;stroke-linecap:round;stroke-linejoin:round" x="62.412693" y="-9.400294">s<tspan style="font-size:3.18101;baseline-shift:sub;fill:#00c;stroke-width:.705558;stroke-linecap:round;stroke-linejoin:round">12</tspan></tspan></text></svg>