<svg height="177.21pt" viewBox="0 0 229.52 62.516" width="650.61pt" xmlns="http://www.w3.org/2000/svg"><g fill="none"><path d="m20.698 27.156a6.2238 6.2238 0 0 1 5.3899 3.1119l-5.3899 3.1119z" opacity=".9" stroke="#0000c8" stroke-linecap="round" stroke-linejoin="round" stroke-width=".17639"/><g stroke="#646464" stroke-width=".26458"><path d="m37.999 43.38-34.6-20"/><path d="m20.698 33.38-17.3 9.9999"/><path d="m20.698 33.38-.000002 20"/></g></g><text font-family="'DejaVu Sans'" font-size="5.6444" font-weight="bold" stroke-width=".26458" x="14.824056" y="62.083485"><tspan font-family="'DejaVu Sans'" font-size="5.6444" font-weight="normal" stroke-width=".26458" x="14.824056" y="62.083485">e=6</tspan></text><g fill="none"><circle cx="20.698" cy="33.38" r="19.998" stroke="#808080" stroke-linecap="round" stroke-linejoin="round" stroke-width=".70556"/><path d="m37.999 23.38-17.3 9.9999" stroke="#c66" stroke-width=".26458"/><path d="m20.698 13.38-.000002 20" stroke="#c66" stroke-width=".26458"/><path d="m37.999 43.375-17.3 9.9998-17.3-9.9998v-20l17.3-9.9998 17.3 9.9998z" stroke="#c00" stroke-linecap="round" stroke-linejoin="round" stroke-width=".35278"/></g><g font-weight="bold" stroke-width=".26458"><g font-family="DejaVu Sans" font-size="4.8938"><text fill="#c66" x="17.101038" y="24.750408"><tspan fill="#c66" font-family="'DejaVu Sans'" font-weight="normal" stroke-width=".26458" x="17.101038" y="24.750408">r</tspan></text><g transform="matrix(.99583 -.091234 .091234 .99583 0 0)"><text fill="#c66" x="26.048334" y="35.258286"><tspan fill="#c66" font-family="'DejaVu Sans'" font-weight="normal" stroke-width=".26458" x="26.048334" y="35.258286">r</tspan></text><text fill="#c00" x="24.243704" y="24.3636"><tspan fill="#c00" font-family="'DejaVu Sans'" font-weight="normal" stroke-width=".26458" x="24.243704" y="24.3636">r</tspan></text></g></g><text fill="#0000c8" font-family="Ubuntu" font-size="2.1167" x="21.175898" y="30.592299"><tspan fill="#0000c8" font-family="DejaVu Sans" font-size="2.1167" font-weight="normal" stroke-width=".26458" x="21.175898" y="30.592299">60°</tspan></text></g></svg>