<svg height="177.21pt" viewBox="0 0 229.52 62.516" width="650.61pt" xmlns="http://www.w3.org/2000/svg"><path d="m55.097 4.502-.005181 42.069 18.247-31.56z" fill="#0ff"/><path d="m55.09 4.5 21.064 5.6341-2.8261 4.8892-18.23-10.521" fill="#f0f"/><g stroke-width=".26458"><g fill="none" stroke="#646464"><path d="m37.999 43.38-34.6-20"/><path d="m20.698 33.38-17.3 9.9999"/><path d="m20.698 33.38-.000002 20"/></g><text font-family="'DejaVu Sans'" font-size="5.6444" font-weight="bold" x="14.824056" y="62.083485"><tspan font-family="'DejaVu Sans'" font-size="5.6444" font-weight="normal" stroke-width=".26458" x="14.824056" y="62.083485">e=6</tspan></text></g><g fill="none"><circle cx="20.698" cy="33.38" r="19.998" stroke="#808080" stroke-linecap="round" stroke-linejoin="round" stroke-width=".70556"/><path d="m37.999 23.38-17.3 9.9999" stroke="#c66" stroke-width=".26458"/><path d="m20.698 13.38-.000002 20" stroke="#c66" stroke-width=".26458"/><path d="m37.999 43.375-17.3 9.9998-17.3-9.9998v-20l17.3-9.9998 17.3 9.9998z" stroke="#c00" stroke-linecap="round" stroke-linejoin="round" stroke-width=".35278"/><path d="m71.46 13.94 1.0791-1.8691 1.8691 1.0791" stroke="#000" stroke-linecap="round" stroke-linejoin="round" stroke-width=".35278"/><g stroke-width="1.4111"><path d="m76.154 10.13-2.8295 4.895" stroke="#80a000"/><path d="m73.329 15.02-18.201 31.525" stroke="#00a0a0"/></g></g><g font-family="DejaVu Sans" font-size="4.8938" font-weight="bold" stroke-width=".26458"><text fill="#c66" transform="matrix(.86603 -.5 .5 .86603 0 0)" x="45.132355" y="72.595825"><tspan fill="#c66" font-family="'DejaVu Sans'" font-weight="normal" stroke-width=".26458" x="45.132355" y="72.595825">r</tspan></text><text fill="#00a0a0" transform="matrix(.4615 -.88714 .88714 .4615 0 0)" x="3.216032" y="70.098488"><tspan fill="#00a0a0" font-family="'DejaVu Sans'" font-weight="normal" stroke-width=".26458" x="3.216032" y="70.098488">x</tspan></text><text fill="#80a000" transform="matrix(.4615 -.88714 .88714 .4615 0 0)" x="21.791655" y="76.013519"><tspan fill="#80a000" font-family="'DejaVu Sans'" font-weight="normal" stroke-width=".26458" x="21.791655" y="76.013519">y</tspan></text><text fill="#c66" transform="rotate(-90)" x="-26.75886" y="53.393211"><tspan fill="#c66" font-family="'DejaVu Sans'" font-weight="normal" stroke-width=".26458" x="-26.75886" y="53.393211">r</tspan></text></g><g fill="none"><g stroke-width=".70556"><path d="m91.588 25.52c-7.2904-12.565-20.904-21.018-36.497-21.018" stroke="#808080" stroke-linecap="round" stroke-linejoin="round"/><g stroke="#c66"><path d="m91.552 25.54-36.474 21.039"/><path d="m55.09 4.5-.01792 42.067"/></g></g><path d="m55.09 4.5 36.462 21.039" stroke="#c00" stroke-linecap="round" stroke-linejoin="round" stroke-width=".70556"/><path d="m76.156 10.13-21.065 36.443" stroke="#66c" stroke-width=".52917"/><path d="m55.09 4.5 21.074 5.6369" stroke="#00c" stroke-linecap="round" stroke-linejoin="round" stroke-width=".70556"/></g><g font-size="4.8938" font-weight="bold"><text style="fill:#00c;font-family:DejaVu Sans;stroke:#fff;stroke-linecap:round;stroke-linejoin:round;stroke-width:.70556" transform="matrix(.97476 .22327 -.22327 .97476 0 0)" x="62.412491" y="-9.400264"><tspan style="fill:#00c;font-family:DejaVu Sans;font-weight:normal;stroke:#fff;stroke-linecap:round;stroke-linejoin:round;stroke-width:.70556" x="62.412491" y="-9.400264">s<tspan style="baseline-shift:sub;fill:#00c;font-size:3.181;stroke:#fff;stroke-linecap:round;stroke-linejoin:round;stroke-width:.70556">12</tspan></tspan></text><text fill="#00c" font-family="DejaVu Sans" stroke-linecap="round" stroke-linejoin="round" stroke-width=".70556" transform="matrix(.97476 .22327 -.22327 .97476 0 0)" x="62.412697" y="-9.400294"><tspan style="fill:#00c;font-family:DejaVu Sans;font-weight:normal;stroke-linecap:round;stroke-linejoin:round;stroke-width:.70556" x="62.412697" y="-9.400294">s<tspan style="baseline-shift:sub;fill:#00c;font-size:3.181;stroke-linecap:round;stroke-linejoin:round;stroke-width:.70556">12</tspan></tspan></text><text fill="#c00" font-family="'DejaVu Sans'" stroke-width=".26458" transform="matrix(.88007 .47484 -.47484 .88007 0 0)" x="59.024742" y="-18.41342"><tspan fill="#c00" font-family="'DejaVu Sans'" font-weight="normal" stroke-width=".26458" x="59.024742" y="-18.41342">s<tspan baseline-shift="sub" fill="#c00" font-size="3.181" stroke-width=".26458">6</tspan></tspan></text></g><circle cx="72.88" cy="13.513" r=".31218"/></svg>