<svg height="177.21pt" viewBox="0 0 229.52 62.516" width="650.61pt" xmlns="http://www.w3.org/2000/svg"><g fill="none"><path d="m76.156 10.13-21.065 36.443" stroke="#66c" stroke-width=".52917"/><g stroke="#646464" stroke-width=".26458"><path d="m37.999 43.38-34.6-20"/><path d="m20.698 33.38-17.3 9.9999"/><path d="m20.698 33.38-.000002 20"/></g></g><text font-family="'DejaVu Sans'" font-size="5.6444" font-weight="bold" stroke-width=".26458" x="14.824056" y="62.083485"><tspan font-family="'DejaVu Sans'" font-size="5.6444" font-weight="normal" stroke-width=".26458" x="14.824056" y="62.083485">e=6</tspan></text><g fill="none"><circle cx="20.698" cy="33.38" r="19.998" stroke="#808080" stroke-linecap="round" stroke-linejoin="round" stroke-width=".70556"/><path d="m37.999 23.38-17.3 9.9999" stroke="#c66" stroke-width=".26458"/><path d="m20.698 13.38-.000002 20" stroke="#c66" stroke-width=".26458"/><path d="m37.999 43.375-17.3 9.9998-17.3-9.9998v-20l17.3-9.9998 17.3 9.9998z" stroke="#c00" stroke-linecap="round" stroke-linejoin="round" stroke-width=".35278"/></g><text fill="#c66" font-family="DejaVu Sans" font-size="4.89382" font-weight="bold" stroke-width=".264581" transform="matrix(.86602656 -.499998 .499998 .86602656 0 0)" x="45.132534" y="72.596115"><tspan fill="#c66" font-family="'DejaVu Sans'" font-weight="normal" stroke-width=".264581" x="45.132534" y="72.596115">r</tspan></text><text fill="#c66" font-family="DejaVu Sans" font-size="4.8938" font-weight="bold" stroke-width=".26458" transform="rotate(-90)" x="-26.75886" y="53.393211"><tspan fill="#c66" font-family="'DejaVu Sans'" font-weight="normal" stroke-width=".26458" x="-26.75886" y="53.393211">r</tspan></text><g fill="none" stroke-width=".70556"><path d="m91.588 25.52c-7.2904-12.565-20.904-21.018-36.497-21.018" stroke="#808080" stroke-linecap="round" stroke-linejoin="round"/><g stroke="#c66"><path d="m91.552 25.54-36.474 21.039"/><path d="m55.09 4.5-.01792 42.067"/></g><g stroke-linecap="round" stroke-linejoin="round"><path d="m55.09 4.5 36.462 21.039" stroke="#c00"/><g stroke="#66c"><path d="m55.09 4.5 21.074 5.6369"/><path d="m76.153617 10.134123 15.434383 15.385877"/></g></g></g><text fill="#c00" font-family="'DejaVu Sans'" font-size="4.8938" font-weight="bold" stroke-width=".26458" transform="matrix(.88007 .47484 -.47484 .88007 0 0)" x="59.024742" y="-18.41342"><tspan fill="#c00" font-family="'DejaVu Sans'" font-weight="normal" stroke-width=".26458" x="59.024742" y="-18.41342">s<tspan baseline-shift="sub" fill="#c00" font-size="3.181" stroke-width=".26458">6</tspan></tspan></text></svg>